<?xml version="1.0" encoding="UTF-8" standalone="no"?>
<!-- Created with Inkscape (http://www.inkscape.org/) -->

<svg
   xmlns:dc="http://purl.org/dc/elements/1.1/"
   xmlns:cc="http://creativecommons.org/ns#"
   xmlns:rdf="http://www.w3.org/1999/02/22-rdf-syntax-ns#"
   xmlns:svg="http://www.w3.org/2000/svg"
   xmlns="http://www.w3.org/2000/svg"
   xmlns:xlink="http://www.w3.org/1999/xlink"
   xmlns:sodipodi="http://sodipodi.sourceforge.net/DTD/sodipodi-0.dtd"
   xmlns:inkscape="http://www.inkscape.org/namespaces/inkscape"
   id="svg3406"
   version="1.1"
   inkscape:version="0.91 r13725"
   width="1350"
   height="1350"
   viewBox="0 0 1350 1350"
   sodipodi:docname="icon.svg"
   inkscape:export-filename="/home/ororor012/Desktop/Disappointment Blocker/icon/icon128.png"
   inkscape:export-xdpi="8.5299997"
   inkscape:export-ydpi="8.5299997">
  <metadata
     id="metadata3412">
    <rdf:RDF>
      <cc:Work
         rdf:about="">
        <dc:format>image/svg+xml</dc:format>
        <dc:type
           rdf:resource="http://purl.org/dc/dcmitype/StillImage" />
        <dc:title></dc:title>
      </cc:Work>
    </rdf:RDF>
  </metadata>
  <defs
     id="defs3410">
    <clipPath
       clipPathUnits="userSpaceOnUse"
       id="clipPath4433">
      <text
         transform="matrix(1,0,0.00266986,1,0,0)"
         sodipodi:linespacing="125%"
         id="text4435"
         y="1099.9005"
         x="-75.862823"
         style="font-style:normal;font-weight:normal;font-size:40px;line-height:125%;font-family:sans-serif;letter-spacing:0px;word-spacing:0px;fill:#1d1d1d;fill-opacity:1;stroke:none;stroke-width:1px;stroke-linecap:butt;stroke-linejoin:miter;stroke-opacity:1"
         xml:space="preserve"><tspan
           style="font-size:1250px;fill:#1d1d1d;fill-opacity:1"
           y="1099.9005"
           x="-75.862823"
           id="tspan4437"
           sodipodi:role="line">B</tspan></text>
    </clipPath>
    <filter
       height="326.5"
       width="746.1"
       y="-15.4"
       x="652.2"
       filterUnits="userSpaceOnUse"
       id="Adobe_OpacityMaskFilter">
      <feColorMatrix
         id="feColorMatrix4464"
         result="source"
         color-interpolation-filters="sRGB"
         values="-1 0 0 0 1  0 -1 0 0 1  0 0 -1 0 1  0 0 0 1 0"
         type="matrix" />
    </filter>
    <clipPath
       clipPathUnits="userSpaceOnUse"
       id="clipPath5194">
      <text
         xml:space="preserve"
         style="font-style:normal;font-weight:normal;font-size:40px;line-height:125%;font-family:sans-serif;letter-spacing:0px;word-spacing:0px;display:inline;fill:#383838;fill-opacity:1;stroke:none;stroke-width:1px;stroke-linecap:butt;stroke-linejoin:miter;stroke-opacity:1"
         x="64.275261"
         y="1030.6274"
         id="text5196"
         sodipodi:linespacing="125%"
         transform="matrix(1,0,0.53856824,1,0,0)"><tspan
           sodipodi:role="line"
           id="tspan5198"
           x="64.275261"
           y="1030.6274"
           style="font-size:1250px;fill:#383838;fill-opacity:1">B</tspan></text>
    </clipPath>
    <clipPath
       clipPathUnits="userSpaceOnUse"
       id="clipPath5215">
      <rect
         y="924.91022"
         x="233.65067"
         height="409.67935"
         width="388.58481"
         id="rect5217"
         style="opacity:1;fill:#292929;fill-opacity:1"
         transform="matrix(1,0,-0.47234749,0.88141242,0,0)" />
    </clipPath>
  </defs>
  <sodipodi:namedview
     pagecolor="#ffffff"
     bordercolor="#666666"
     borderopacity="1"
     objecttolerance="10"
     gridtolerance="10"
     guidetolerance="10"
     inkscape:pageopacity="0"
     inkscape:pageshadow="2"
     inkscape:window-width="1680"
     inkscape:window-height="977"
     id="namedview3408"
     showgrid="false"
     inkscape:zoom="0.40017006"
     inkscape:cx="557.64439"
     inkscape:cy="644.10708"
     inkscape:window-x="0"
     inkscape:window-y="27"
     inkscape:window-maximized="1"
     inkscape:current-layer="layer3" />
  <style
     id="style4459"
     type="text/css">
	.st0{filter:url(#Adobe_OpacityMaskFilter);}
	.st1{fill:url(#SVGID_2_);}
	.st2{mask:url(#SVGID_1_);}
	.st3{fill:#618BFF;}
	.st4{fill:#2CCAFA;}
	.st5{fill:#3AF7D1;}
	.st6{fill:#FFE01B;}
	.st7{fill:#FFA200;}
	.st8{fill:#FF7381;}
	.st9{clip-path:url(#SVGID_4_);fill:#222B37;}
	.st10{clip-path:url(#SVGID_6_);fill:#222B37;}
	.st11{clip-path:url(#SVGID_8_);fill:#222B37;}
	.st12{clip-path:url(#SVGID_10_);fill:#222B37;}
	.st13{fill:#222B37;}
	.st14{fill:#202020;}
</style>
  <g
     inkscape:groupmode="layer"
     id="layer1"
     inkscape:label="OrigBeforeCut"
     style="display:none"
     sodipodi:insensitive="true">
    <g
       id="g4646"
       transform="translate(-13.170215,-49.273071)">
      <text
         transform="matrix(1,0,0.53589838,1,0,0)"
         sodipodi:linespacing="125%"
         id="text3416"
         y="1279.9005"
         x="-261.49097"
         style="font-style:normal;font-weight:normal;font-size:40px;line-height:125%;font-family:sans-serif;letter-spacing:0px;word-spacing:0px;fill:#292929;fill-opacity:1;stroke:none;stroke-width:1px;stroke-linecap:butt;stroke-linejoin:miter;stroke-opacity:1"
         xml:space="preserve"><tspan
           style="font-size:1250px;fill:#292929;fill-opacity:1"
           y="1279.9005"
           x="-261.49097"
           id="tspan3418"
           sodipodi:role="line">D</tspan></text>
      <text
         clip-path="url(#clipPath4433)"
         xml:space="preserve"
         style="font-style:normal;font-weight:normal;font-size:40px;line-height:125%;font-family:sans-serif;letter-spacing:0px;word-spacing:0px;fill:#1d1d1d;fill-opacity:1;stroke:none;stroke-width:1px;stroke-linecap:butt;stroke-linejoin:miter;stroke-opacity:1"
         x="-210.04477"
         y="1183.9005"
         id="text4423"
         sodipodi:linespacing="125%"
         transform="matrix(1,0,0.53589838,1,0,96)"><tspan
           sodipodi:role="line"
           id="tspan4425"
           x="-210.04477"
           y="1183.9005"
           style="font-size:1250px;fill:#1d1d1d;fill-opacity:1">D</tspan></text>
      <text
         transform="matrix(1,0,0.53856824,1,0,0)"
         sodipodi:linespacing="125%"
         id="text4397"
         y="1079.9005"
         x="50.908562"
         style="font-style:normal;font-weight:normal;font-size:40px;line-height:125%;font-family:sans-serif;letter-spacing:0px;word-spacing:0px;fill:#383838;fill-opacity:1;stroke:none;stroke-width:1px;stroke-linecap:butt;stroke-linejoin:miter;stroke-opacity:1"
         xml:space="preserve"><tspan
           style="font-size:1250px;fill:#383838;fill-opacity:1"
           y="1079.9005"
           x="50.908562"
           id="tspan4399"
           sodipodi:role="line">B</tspan></text>
    </g>
    <g
       id="g4587"
       transform="matrix(3.0444047,-1.0888292,1.0888292,3.0444047,-3510.9633,1863.2191)">
      <g
         mask="url(#SVGID_1_)"
         id="g4482"
         class="st2">
        <path
           id="path4484"
           d="m 1397.6,125.7 c -5.9,-6 -13.6,-9.6 -22.1,-9 -9.2,0.6 -17.6,5 -25,10.3 -8.6,6.3 -15.6,14 -22.6,22 -6.5,7.3 -13.8,14.2 -21.5,20.2 -16.2,12.7 -35.4,19.4 -55.3,19.2 -2.8,0 -5.6,-0.2 -8.5,-0.5 0,0 -2.2,-0.2 -0.9,-0.1 1.3,0.1 -0.8,-0.1 -0.9,-0.1 -1.7,-0.3 -3.4,-0.6 -5.1,-0.9 -5.6,-1.2 -11,-2.9 -16.4,-4.7 -1.5,-0.5 -2.9,-1.1 -4.4,-1.6 -0.6,-0.2 -1.2,-0.5 -1.9,-0.8 0.3,0.1 1.8,0.8 0.3,0.1 -2.8,-1.4 -5.5,-2.6 -8.3,-4 -5.1,-2.6 -10.2,-5.3 -15.2,-7.9 -20.9,-11.1 -42.8,-21.2 -66.4,-24.7 -23.1,-3.4 -46.1,-2.7 -68.8,2.9 -21.2,5.2 -41.5,14.4 -60.2,25.5 -18.6,11.1 -35.5,24.6 -53,37.2 -18,13 -36.4,25.3 -56,35.7 -4.9,2.6 -9.8,5.1 -14.8,7.4 -2.4,1.1 -4.9,2.1 -7.3,3.2 -0.1,0.1 4,-1.6 1.9,-0.8 -0.6,0.2 -1.1,0.5 -1.7,0.7 -1.3,0.5 -2.6,1.1 -4,1.6 -10.3,4 -21,7.3 -31.8,9.7 -5,1.1 -10.1,2 -15.2,2.7 1.8,-0.2 3.6,-0.5 5.4,-0.7 -15,2 -30.2,2 -45.2,0.1 1.8,0.2 3.7,0.5 5.5,0.7 -7.7,-1 -15.3,-2.6 -22.8,-4.7 -3.8,-1.1 -7.6,-2.3 -11.3,-3.7 -1.6,-0.6 -3.2,-1.3 -4.8,-1.9 7,2.7 0.3,0.1 -1.5,-0.8 -6.8,-3.2 -13.2,-7 -19.3,-11.4 -0.8,-0.6 -1.6,-1.2 -2.5,-1.8 5.4,4 2.4,1.9 1.2,0.8 -1.2,-1.1 -2.4,-2.4 -3.6,-3.6 -2.9,-3 -5.6,-6.1 -8.1,-9.3 1.2,1.6 2.4,3.1 3.6,4.7 -3.1,-4.1 -6.2,-8.1 -9.3,-12.2 1.2,1.6 2.5,3.2 3.7,4.8 -0.9,-1.1 -1.7,-2.2 -2.5,-3.4 -3.7,-5.1 -7.8,-9.1 -14.1,-10.8 -5.6,-1.6 -13.2,-0.9 -18.2,2.4 -9.9,6.4 -16.1,21.5 -8.5,32.2 4.5,6.3 9.1,12 14.8,17.1 5.5,4.9 11.6,9.1 17.5,13.4 10.7,7.8 22.1,13.7 34.4,18.6 23,9.2 48.8,12.7 73.4,11.4 58.1,-3.1 109.2,-32.1 154.8,-66.2 6.5,-4.9 13,-9.9 19.5,-14.9 2.8,-2.1 5.5,-4.3 8.2,-6.4 1.3,-1 2.6,-2 3.9,-3 0.6,-0.5 1.3,-1 1.9,-1.5 1.8,-1.4 -3,2.3 -0.3,0.3 10.7,-8.1 21.8,-15.8 33.5,-22.5 5.7,-3.2 11.5,-6.3 17.5,-9 1.4,-0.6 2.8,-1.3 4.2,-1.9 3,-1.3 -0.9,0.3 -1,0.4 0.2,-0.4 2.2,-0.9 2.7,-1.1 3,-1.2 6,-2.3 9.1,-3.3 6.1,-2 12.4,-3.8 18.7,-5.1 3.2,-0.7 6.4,-1.2 9.6,-1.7 2.3,-0.4 -3.4,0.4 -1,0.1 0.8,-0.1 1.5,-0.2 2.3,-0.3 1.7,-0.2 3.5,-0.3 5.2,-0.5 6.7,-0.5 13.4,-0.5 20.1,-0.1 1.6,0.1 3.2,0.2 4.8,0.4 0.8,0.1 1.6,0.2 2.4,0.2 0.2,0 4.3,0.4 1.5,0.2 -2.4,-0.2 0.3,0.1 0.9,0.1 0.8,0.1 1.7,0.3 2.5,0.4 1.9,0.3 3.8,0.7 5.7,1.1 7,1.5 13.9,3.6 20.7,6.2 1.6,0.6 3.1,1.2 4.7,1.8 0.8,0.3 1.6,0.6 2.3,0.9 3.8,1.5 -2,-0.9 0.3,0.1 3.3,1.4 6.5,2.9 9.8,4.4 1.6,0.7 3.2,1.5 4.9,2.1 -3,-1.1 -0.9,-0.3 -0.2,-0.1 1.7,0.8 3.5,1.6 5.2,2.3 3.3,1.5 6.6,3 9.9,4.4 7.6,3.3 15.2,6.7 23,9.1 14.8,4.6 30.9,6.1 46.3,4.2 15.1,-1.9 29.9,-6.7 42.7,-15.2 10.5,-7 19.5,-15.8 27.4,-25.7 8.2,-10.3 15.3,-21.5 24.6,-31 7.8,-7.9 18.3,-16.7 30,-16.9 5.6,-0.1 10.6,2.3 14.8,5.9 3,2.6 6.6,-0.9 4.2,-3.4 l 0,0 z"
           class="st3"
           inkscape:connector-curvature="0"
           style="fill:#618bff" />
        <path
           id="path4486"
           d="m 1396.1,121.4 c -12.9,-14 -32.3,-10.6 -47.3,-2.1 -7.9,4.5 -14.5,10.5 -21,16.8 -6.8,6.7 -13.8,13.2 -21.5,19 -16.6,12.6 -35.5,18.9 -56.1,17.9 -2.3,-0.1 -6.3,-0.5 -7.5,-0.6 0.5,0.1 -2.2,-0.4 -2.8,-0.5 -1.5,-0.3 -3,-0.6 -4.4,-0.9 -2.8,-0.6 -5.5,-1.4 -8.2,-2.3 -1.5,-0.5 -2.9,-1 -4.4,-1.5 -0.6,-0.2 -1.2,-0.5 -1.9,-0.7 -0.2,-0.1 -2.6,-1 -1.4,-0.5 2.1,0.8 -3.4,-1.4 -2.9,-1.2 0.3,0.1 1.8,0.8 0.3,0.1 -1.4,-0.6 -2.8,-1.3 -4.3,-2 -2.5,-1.2 -5,-2.5 -7.5,-3.9 -5,-2.7 -9.9,-5.4 -14.8,-8.2 -20,-11.3 -40.9,-21.8 -63.6,-26.1 -23.1,-4.4 -46.3,-4.2 -69.3,0.5 -21.2,4.4 -41.7,12.9 -60.6,23.4 C 978,159 960.8,172 943,184.2 c -17.9,12.3 -36.3,24.1 -55.7,34.1 -4.7,2.4 -9.5,4.8 -14.4,6.9 -1.1,0.5 -2.2,1 -3.4,1.5 -0.7,0.3 -1.6,0.6 -2.3,1 -0.1,0.1 3.9,-1.6 1.9,-0.8 -2.7,1 -5.3,2.1 -8,3.1 -10.2,3.8 -20.6,7 -31.2,9.3 -5.1,1.1 -10.3,2 -15.5,2.7 1.8,-0.2 3.6,-0.5 5.4,-0.7 -15.2,2 -30.7,2 -45.9,0 1.8,0.2 3.7,0.5 5.5,0.7 -7.8,-1.1 -15.5,-2.7 -23.1,-4.9 -3.6,-1 -7.2,-2.2 -10.7,-3.5 -1.8,-0.7 -8.3,-3.7 -1.6,-0.5 -1.7,-0.8 -3.4,-1.5 -5.1,-2.3 -6.9,-3.3 -13.5,-7.2 -19.6,-11.6 -0.8,-0.6 -1.7,-1.1 -2.4,-1.8 0.7,0.7 4.3,3.4 1.6,1.2 -1.5,-1.2 -2.8,-2.4 -4.1,-3.8 -2.8,-2.9 -5.5,-6 -8,-9.3 1.2,1.5 2.4,3.1 3.6,4.6 -3.1,-4 -5.9,-8.2 -9.1,-12.2 1.2,1.6 2.5,3.2 3.7,4.8 -1.5,-1.9 -2.9,-3.9 -4.3,-5.9 -3.5,-5.1 -8,-9.1 -14.1,-10.8 -5.6,-1.6 -13.2,-0.9 -18.2,2.4 -10.1,6.5 -15.9,21.3 -8.5,32.2 4.2,6.3 8.9,12.1 14.4,17.3 2,1.9 4.1,3.6 6.2,5.3 2.3,1.8 4.6,3.6 6.9,5.3 0.5,0.4 1.1,0.8 1.6,1.2 3.1,2.3 -4,-3.2 -1.1,-0.9 10.4,8 21,15 33.2,20.3 24.1,10.3 50,15.6 76.3,15 57.6,-1.1 109.6,-28.7 155.6,-61.1 22.6,-16 44,-33.7 68.3,-47 5.7,-3.1 11.4,-6 17.4,-8.6 1.2,-0.5 3.1,-2 -0.4,0.1 0.6,-0.4 1.5,-0.6 2.2,-0.9 1.4,-0.6 2.9,-1.1 4.3,-1.7 3.1,-1.2 6.2,-2.2 9.3,-3.2 6.2,-2 12.6,-3.6 19,-4.8 1.5,-0.3 3,-0.6 4.6,-0.8 0.8,-0.1 1.5,-0.2 2.3,-0.4 2.3,-0.4 -3.4,0.4 -1,0.1 3.5,-0.4 7,-0.7 10.5,-0.9 6.8,-0.4 13.6,-0.3 20.4,0.3 1.6,0.1 3.3,0.3 4.9,0.5 0.6,0.1 3.3,0.4 0.9,0.1 -2.4,-0.3 0.4,0.1 0.9,0.1 3.6,0.5 7.1,1.2 10.7,2 6.9,1.6 13.7,3.8 20.3,6.4 0.8,0.3 1.5,0.6 2.3,0.9 2.7,1.1 0.1,0 -0.3,-0.2 1.5,0.6 3,1.3 4.5,2 3.4,1.5 6.7,3.2 10.1,4.7 13.8,6.4 27.3,13.6 41.6,18.8 14.4,5.3 30.7,7.5 46,6.2 15.3,-1.2 30.4,-5.4 43.5,-13.6 10.6,-6.6 19.6,-15.4 27.8,-24.9 7.9,-9.1 15.2,-19 24.5,-26.8 8.1,-6.7 18.7,-12.8 29.6,-12.6 5.9,0.1 11.1,2.5 15.5,6.4 2.6,2.2 6.1,-1.3 3.8,-3.8 l 0,0 z"
           class="st4"
           inkscape:connector-curvature="0"
           style="fill:#2ccafa" />
        <path
           id="path4488"
           d="m 1396.4,117.4 c -11.3,-14 -29.6,-12.7 -44.6,-6.1 -16.5,7.3 -28.8,21.3 -43.4,31.5 -7.5,5.3 -15.5,10 -24.1,12.9 -10.1,3.4 -19.7,4.7 -30.3,4.3 -2.5,-0.1 -5.1,-0.3 -7.6,-0.6 0,0 -2,-0.3 -0.9,-0.1 1.1,0.2 -0.9,-0.2 -0.9,-0.2 -1.6,-0.3 -3.3,-0.6 -4.9,-1 -5.1,-1.1 -10.2,-2.7 -15.1,-4.6 -0.6,-0.2 -1.2,-0.5 -1.8,-0.7 0.5,0.2 2.1,1 -0.3,-0.1 -1.2,-0.5 -2.3,-1.1 -3.5,-1.6 -2.5,-1.2 -5,-2.5 -7.4,-3.8 -4.9,-2.7 -9.5,-5.6 -14.2,-8.6 -18.9,-12.1 -37.4,-24.3 -58.7,-32 -20.9,-7.6 -44.2,-10.5 -66.3,-8.9 -21.9,1.6 -43.2,7 -63.4,15.4 -20.9,8.8 -40.1,20.1 -59.5,31.8 -18.5,11.2 -37.2,22.1 -56.8,31.5 -2.3,1.1 -4.5,2.1 -6.8,3.2 -1.3,0.6 -2.7,1.2 -4,1.8 -0.6,0.3 -1.2,0.5 -1.7,0.7 -2.4,1.1 3.6,-1.5 1.2,-0.5 -5,2 -10,4 -15.2,5.8 -10,3.5 -20.3,6.5 -30.7,8.7 -5.4,1.1 -10.8,2.1 -16.2,2.8 1.8,-0.2 3.6,-0.5 5.4,-0.7 -15.6,2 -31.2,2.1 -46.8,0.1 1.8,0.2 3.7,0.5 5.5,0.7 -8.2,-1.1 -16.2,-2.8 -24.2,-5.1 -3.8,-1.1 -7.5,-2.3 -11.2,-3.7 -1,-0.4 -1.9,-0.7 -2.9,-1.1 -0.8,-0.3 -4.5,-1.9 -0.8,-0.3 3.7,1.6 0,0 -0.8,-0.4 -0.9,-0.4 -1.9,-0.9 -2.8,-1.3 -7.2,-3.4 -14.1,-7.5 -20.6,-12.2 -0.8,-0.6 -1.6,-1.4 -2.4,-1.8 0.9,0.7 1.8,1.4 2.7,2.1 -0.5,-0.4 -1.1,-0.8 -1.6,-1.3 -1.6,-1.3 -3.1,-2.6 -4.6,-4 -3.1,-2.8 -5.7,-5.8 -8.2,-9 1.2,1.5 2.3,3 3.5,4.5 -4.8,-6.2 -9,-13 -12.9,-19.7 -6.2,-10.6 -21.5,-15.4 -32.2,-8.5 -10.7,6.9 -15.1,20.9 -8.5,32.2 7,11.8 16.3,20.6 26.3,29.6 9.5,8.5 20.2,16 31.6,21.9 23.4,11.9 49,18.2 75.2,19.5 57.9,2.8 112.3,-22.5 160.4,-52.1 24,-14.7 46.8,-31.3 72.6,-43 1.4,-0.7 3.1,-1.2 4.4,-2 -0.4,0.2 -3.7,1.5 -0.9,0.4 0.7,-0.3 1.5,-0.6 2.2,-0.9 3.2,-1.3 6.4,-2.4 9.6,-3.6 6.4,-2.2 12.9,-4.1 19.5,-5.5 3.1,-0.7 6.2,-1.3 9.3,-1.8 0.8,-0.1 1.6,-0.3 2.3,-0.4 0.7,-0.1 3.3,-0.3 0.7,-0.1 -2.6,0.2 0.1,0 0.7,-0.1 1,-0.1 2,-0.2 3,-0.3 6.8,-0.6 13.7,-0.8 20.5,-0.6 3.3,0.1 6.6,0.4 9.8,0.7 0.8,0.1 1.7,0.2 2.5,0.3 3.5,0.4 -0.6,-0.1 -0.6,-0.1 0.1,-0.2 5.7,0.9 6.3,1.1 7.2,1.3 14.2,3.2 21.1,5.6 1.6,0.6 3.1,1.1 4.7,1.8 0.7,0.3 1.6,0.5 2.3,0.9 -0.4,-0.2 -3.1,-1.4 -0.4,-0.1 3.2,1.5 6.4,2.9 9.5,4.5 6.3,3.2 12.4,6.6 18.5,10 13,7.2 25.9,15.1 40,20.3 13.9,5.2 29.3,7.8 44.2,7 14.9,-0.8 29.4,-4.5 42.4,-11.9 11,-6.2 20.4,-14.8 29.1,-23.8 8.2,-8.5 16.1,-17.8 26,-24.4 8.5,-5.7 19.3,-10.8 29.8,-9.4 5.5,0.7 10.1,3.5 13.9,7.4 2.7,3.2 6.1,-0.4 4,-3 l 0,0 z"
           class="st5"
           inkscape:connector-curvature="0"
           style="fill:#3af7d1" />
        <path
           id="path4490"
           d="m 1397,115 c -10.6,-14.9 -29.1,-15.3 -44.9,-9.2 -8.1,3.1 -15.2,7.5 -22.1,12.7 -8.2,6.2 -16.6,12.2 -25.5,17.4 -8.5,5 -17.5,8.9 -27.2,10.9 -4.9,1 -9.5,1.4 -15,1.6 -2.7,0.1 -5.4,0 -8.1,-0.2 -1.4,-0.1 -2.9,-0.2 -4.3,-0.4 -1.4,-0.1 -0.2,0 0,0 -0.8,-0.1 -1.6,-0.2 -2.4,-0.4 -5.6,-1 -11.1,-2.4 -16.4,-4.3 -1.2,-0.4 -2.3,-0.9 -3.4,-1.3 -2.4,-0.9 -0.8,-0.3 -0.3,-0.1 -0.6,-0.2 -1.1,-0.5 -1.7,-0.8 -2.6,-1.2 -5.2,-2.5 -7.7,-3.9 -10,-5.6 -19.2,-12.4 -28.4,-19.2 -18.9,-14.1 -38.1,-27.1 -60.6,-34.8 -23,-7.8 -48.1,-10.6 -72.3,-7.9 -25.2,2.8 -48.8,10.2 -72,20.4 -21.6,9.5 -42.1,21.6 -63.3,31.8 -5.2,2.5 -10.4,5 -15.7,7.3 -2.5,1.1 -5.1,2.1 -7.6,3.3 0.4,-0.2 4.1,-1.7 1.1,-0.4 -0.6,0.2 -1.2,0.5 -1.8,0.7 -1.4,0.6 -2.8,1.1 -4.1,1.7 -10.8,4.3 -21.8,8.1 -33.1,11.2 -5.7,1.6 -11.5,3 -17.3,4.1 -2.7,0.5 -5.4,1.1 -8.1,1.5 -1.3,0.2 -2.5,0.4 -3.8,0.6 -1.2,0.2 -3.9,0.4 1.5,-0.2 -0.8,0.1 -1.7,0.2 -2.5,0.3 -10.7,1.3 -21.5,1.7 -32.2,1.2 -4.6,-0.2 -9.2,-0.7 -13.7,-1.3 1.8,0.2 3.6,0.5 5.5,0.7 -10.9,-1.5 -21.6,-3.9 -32,-7.5 -2.6,-0.9 -5.2,-1.8 -7.7,-2.8 -5.1,-2 3.6,1.6 0.3,0.1 -1.2,-0.6 -2.5,-1.1 -3.7,-1.7 -4.9,-2.3 -9.7,-4.9 -14.4,-7.8 -2.3,-1.4 -4.6,-2.9 -6.8,-4.5 -1.1,-0.8 -2.2,-1.6 -3.3,-2.4 -2.9,-2.1 4.6,3.7 0.3,0.2 -4.2,-3.4 -8.2,-7.1 -11.9,-11 -3.7,-4 2.3,3.4 0.2,0.5 -0.8,-1.1 -1.6,-2.2 -2.3,-3.3 -1.5,-2.2 -3,-4.5 -4.4,-6.8 -2.8,-4.7 -5.4,-9.7 -7.9,-14.6 -5.6,-11 -22,-15.1 -32.2,-8.5 -11.3,7.3 -14.4,20.4 -8.5,32.2 6.1,12 15.3,21.4 24.6,30.9 8.9,9.1 19.3,17.1 30.3,23.6 22.5,13.3 47.6,20.6 73.5,23.6 58.1,6.8 114.6,-16.1 164.9,-42.8 12.7,-6.7 25.1,-13.9 37.7,-20.8 6.5,-3.5 13,-6.8 19.7,-9.8 1.6,-0.7 3.1,-1.4 4.7,-2.1 0.6,-0.3 3.2,-1.3 0.8,-0.4 -2.4,1 0.2,-0.1 0.8,-0.3 3.3,-1.4 6.7,-2.6 10.1,-3.8 6.7,-2.4 13.5,-4.5 20.3,-6.2 3.2,-0.8 6.4,-1.5 9.7,-2.1 1.6,-0.3 3.2,-0.6 4.9,-0.9 0.8,-0.1 1.6,-0.3 2.4,-0.4 4.2,-0.7 -3.9,0.4 0.4,0 7,-0.7 14,-1.2 21.1,-1.1 3.3,0 6.7,0.2 10,0.5 1.7,0.1 3.4,0.3 5,0.5 0.8,0.1 3.3,0.3 -0.6,-0.1 1.1,0.1 2.1,0.3 3.2,0.5 7.2,1.2 14.3,2.8 21.2,5 3.5,1.1 6.9,2.4 10.3,3.6 2.2,0.8 -2.5,-1.1 -0.4,-0.2 0.8,0.3 1.5,0.7 2.3,1 1.7,0.8 3.4,1.6 5,2.4 12.4,6.2 23.9,14 35.5,21.5 5.7,3.7 11.4,7.4 17.2,10.9 2.9,1.7 5.8,3.4 8.8,4.9 0.7,0.4 1.5,0.8 2.2,1.1 1.1,0.5 5.6,2.4 3.4,1.5 -2.2,-0.9 2.3,1 3.3,1.4 0.9,0.4 1.9,0.8 2.8,1.1 13.5,5.2 28.2,7.8 42.6,7.3 14.5,-0.5 28.6,-4 41.4,-10.9 11.1,-5.9 20.7,-14.2 29.9,-22.7 8.4,-7.8 16.8,-15.8 27,-21.3 8.5,-4.6 19.2,-8.3 29,-6 5.1,1.3 9.3,4.2 12.6,8.2 1.8,2.7 5.8,-0.2 4.1,-2.7 l 0,0 z"
           class="st6"
           inkscape:connector-curvature="0"
           style="fill:#ffe01b" />
        <path
           id="path4492"
           d="m 1397.2,111.3 c -9,-14.6 -26,-16.8 -41.4,-12.7 -17.7,4.6 -31.7,16.8 -47.5,25.3 -8.4,4.6 -17.2,8.4 -26.6,10.5 -5.1,1.2 -9.2,1.5 -14.6,1.6 -2.7,0.1 -5.3,0.1 -8,-0.1 -1.2,-0.1 -2.4,-0.2 -3.6,-0.3 -0.6,-0.1 -1.2,-0.1 -1.8,-0.2 -0.5,-0.1 -1.8,-0.3 -0.6,-0.1 -5.2,-0.8 -10.4,-2 -15.5,-3.7 -1.1,-0.4 -2.2,-0.8 -3.3,-1.2 -0.6,-0.2 -3.9,-1.6 -1.9,-0.7 -2.5,-1.1 -5,-2.3 -7.4,-3.6 -4.6,-2.4 -9,-5.2 -13.2,-8.2 -1,-0.7 -2,-1.4 -3,-2.1 -0.7,-0.5 -1.3,-1 -2,-1.5 0.2,0.1 1.7,1.4 0.5,0.4 -2.2,-1.8 -4.5,-3.6 -6.7,-5.5 -17.3,-14.4 -34.1,-29.8 -54.1,-40.5 -22.6,-12 -48.1,-18.5 -73.6,-19.4 -24.2,-0.9 -48.6,3.5 -71.6,10.8 -23.6,7.5 -45.9,18.5 -68.5,28.3 -1.9,0.8 1.4,-0.6 1.5,-0.6 -0.8,0.3 -1.6,0.7 -2.4,1 -1.2,0.5 -2.4,1 -3.6,1.5 -2.8,1.2 -5.7,2.3 -8.5,3.4 -5.3,2.1 -10.6,4.1 -15.9,6 -10.8,3.9 -21.8,7.3 -33,10.2 -5.7,1.4 -11.4,2.7 -17.1,3.8 -2.8,0.5 -5.5,1 -8.3,1.4 -0.8,0.1 -5.1,0.7 -1.9,0.3 3.3,-0.4 -1.6,0.2 -2.5,0.3 -11.7,1.3 -23.4,1.8 -35.1,1.1 -4.4,-0.2 -8.8,-0.7 -13.1,-1.2 1.8,0.2 3.6,0.5 5.4,0.7 -8.6,-1.2 -17.2,-3 -25.5,-5.4 -4.1,-1.2 -8.2,-2.6 -12.2,-4.1 -1,-0.4 -1.9,-0.7 -2.9,-1.1 -0.5,-0.2 -1,-0.4 -1.4,-0.6 -2,-0.8 2.9,1.3 2.6,1.1 -1.8,-1.2 -4.2,-1.8 -6.1,-2.8 -7.8,-3.8 -15.4,-8.2 -22.4,-13.3 -0.8,-0.6 -1.6,-1.2 -2.5,-1.8 -2.8,-2.1 3.8,3.1 1.1,0.8 -1.7,-1.4 -3.4,-2.8 -5,-4.3 -3.2,-2.8 -6.2,-5.8 -9,-8.9 -0.8,-0.9 -1.6,-1.8 -2.4,-2.7 -0.6,-0.7 -3.8,-4.6 -1.2,-1.3 2.4,3.1 0,-0.3 -0.6,-1.2 -0.6,-1 -1.3,-2 -1.9,-3 -2.5,-4.3 -4.8,-8.7 -6.7,-13.3 0.8,1.9 1.6,3.7 2.4,5.6 -1.9,-4.8 -4.2,-9.4 -6.3,-14.1 -2.1,-5 -9.1,-9.5 -14.1,-10.8 -5.6,-1.6 -13.2,-0.9 -18.2,2.4 -5,3.2 -9.5,8.1 -10.8,14.1 -0.3,2.1 -0.6,4.2 -0.8,6.3 0,4.3 1.1,8.2 3.2,11.9 5.2,12.2 13.9,21.8 22.4,31.8 8.3,9.7 18.3,18 28.8,25.3 19.6,13.6 43,22.7 66.4,27.1 29.2,5.4 58.8,4.2 87.8,-1.9 29.3,-6.1 57.3,-17.4 84.5,-29.6 13.4,-6 26.6,-12.6 40,-18.7 1.7,-0.8 3.3,-1.5 5,-2.2 0.8,-0.4 1.7,-0.7 2.5,-1.1 2.4,-1 -2.9,1.2 -0.5,0.2 3.6,-1.4 7.1,-2.9 10.7,-4.2 7.1,-2.6 14.3,-5 21.6,-7 6.9,-1.9 14,-3.5 21.1,-4.6 0.9,-0.1 1.7,-0.3 2.6,-0.4 0.6,-0.1 3.4,-0.4 0.9,-0.1 -2.5,0.3 0.3,0 0.9,-0.1 0.9,-0.1 1.7,-0.2 2.6,-0.3 3.7,-0.4 7.3,-0.6 11,-0.7 7.4,-0.2 14.8,0 22.1,0.8 0.7,0.1 2,0 2.6,0.3 -0.4,-0.2 -3.8,-0.6 -0.5,0 1.8,0.3 3.5,0.6 5.3,0.9 3.8,0.7 7.5,1.6 11.2,2.6 3.6,1 7.1,2 10.6,3.2 1.8,0.6 3.6,1.3 5.3,1.9 0.9,0.3 1.7,0.7 2.6,1 1.9,0.7 -2.6,-1.2 0.2,0.1 6.2,2.9 12.2,6.1 17.9,9.7 11.5,7.2 22.3,15.7 33.2,23.8 11.6,8.6 23,16.3 36.3,21.8 12.8,5.3 26.6,8.1 40.5,8.2 14.4,0.1 28.3,-3.1 41.2,-9.3 11.3,-5.4 21.2,-13.2 30.8,-21.1 8.4,-6.9 17.2,-13.9 27.2,-18.4 8.6,-3.9 19.1,-6.6 28.4,-3.8 4.9,1.5 9,4.6 12,8.7 1.8,2.9 6.2,0.6 4.4,-2.4 l 0,0 z"
           class="st7"
           inkscape:connector-curvature="0"
           style="fill:#ffa200" />
        <path
           id="path4494"
           d="m 1397.4,107.8 c -7.7,-14.5 -23.6,-18 -38.7,-15.5 -17.7,2.8 -32.2,13.6 -48,21.2 -8.6,4.1 -17.6,7.7 -27,9.6 -4.6,0.9 -9.1,1.3 -14.1,1.3 -2.6,0 -5.3,-0.1 -7.9,-0.3 -1.2,-0.1 -2.4,-0.2 -3.6,-0.3 0,0 -1.9,-0.2 -0.9,-0.1 0.8,0.1 -1.2,-0.2 -1.4,-0.2 -4.9,-0.8 -9.8,-2 -14.5,-3.6 -1.3,-0.4 -2.5,-0.9 -3.8,-1.4 -0.6,-0.2 -3.1,-1.3 -1.3,-0.5 -2.2,-1 -4.5,-2.1 -6.6,-3.2 -4.6,-2.4 -9,-5.2 -13.2,-8.3 -0.8,-0.6 -2.8,-2.1 -0.9,-0.7 0.3,0.2 -4.3,-3.4 -2.3,-1.8 1.3,1 -0.3,-0.2 -0.4,-0.3 -2.1,-1.7 -4.2,-3.5 -6.3,-5.4 -16.3,-14.8 -31.1,-30.8 -49,-43.7 -19.1,-13.7 -41.9,-23.1 -65,-27.1 -24.7,-4.4 -49.4,-3.4 -74.1,1.2 -23,4.3 -44.6,12.5 -66.5,20.5 -22,8 -44.2,15.5 -67,20.8 -5.6,1.3 -11.3,2.5 -17,3.5 -2.6,0.5 -5.3,0.9 -7.9,1.3 -3.8,0.6 3.8,-0.4 0,0 -1.8,0.2 -3.5,0.4 -5.3,0.6 -11.5,1.2 -23.1,1.7 -34.7,1.2 -5.5,-0.3 -11.1,-0.7 -16.6,-1.5 1.8,0.2 3.6,0.5 5.4,0.7 -8.8,-1.2 -17.5,-3 -26,-5.6 -4.3,-1.3 -8.6,-2.7 -12.8,-4.3 -1,-0.4 -1.9,-0.8 -2.9,-1.1 -3.3,-1.3 4.4,1.9 1.1,0.5 -2.2,-1 -4.4,-2 -6.6,-3 -7.9,-3.8 -15.5,-8.3 -22.6,-13.5 -0.9,-0.7 -1.9,-1.7 -2.9,-2.1 -0.3,-0.2 4,3.1 2.3,1.7 -0.4,-0.3 -0.8,-0.6 -1.2,-1 -1.7,-1.4 -3.4,-2.8 -5.1,-4.3 -3.3,-2.9 -6.5,-6.1 -9.5,-9.3 -1.7,-1.9 -3.4,-3.8 -5,-5.8 -0.3,-0.4 -0.6,-0.8 -1,-1.2 -1.6,-2 3,4 1.5,1.9 -0.7,-1 -1.4,-1.9 -2.1,-2.9 -2.8,-4.3 -5,-9 -7,-13.7 0.8,1.8 1.5,3.6 2.3,5.5 -2,-4.7 -3.7,-9.5 -5.7,-14.3 0.8,1.9 1.6,3.8 2.4,5.6 -0.9,-2.3 -1.8,-4.5 -2.6,-6.9 -2,-5.8 -5.4,-10.9 -10.8,-14.1 -5.1,-3 -12.5,-4.2 -18.2,-2.4 -11.5,3.7 -20.8,16.5 -16.5,29 2.5,7.2 5.5,14.1 9.6,20.6 1.5,2.3 3,4.6 4.7,6.8 1.7,2.3 3.5,4.6 5.3,6.9 0.4,0.5 0.8,1.1 1.3,1.6 2.2,2.7 -2.7,-3.6 -1.2,-1.6 7.8,10.4 16.4,19.9 26.6,28 20.4,16.1 43.7,27.8 68.9,34.1 58.9,14.9 119.1,-0.4 174.4,-21.4 28,-10.7 55.3,-22.8 84.9,-28.2 1.7,-0.3 3.4,-0.6 5.1,-0.9 1.3,-0.2 6.2,-1.5 1.8,-0.3 3.4,-0.9 7.4,-0.8 10.9,-1 7.1,-0.5 14.2,-0.5 21.2,-0.1 3.3,0.2 7,0.2 10.3,0.9 -4.2,-1 0.8,0.1 2,0.3 2.2,0.4 4.3,0.8 6.4,1.2 7.2,1.5 14.3,3.6 21.2,6.1 1.7,0.6 3.4,1.3 5.1,2 2.3,0.9 -2.3,-1.1 0,0 0.8,0.4 1.7,0.8 2.6,1.2 3.3,1.5 6.5,3.1 9.6,4.9 6,3.4 11.6,7.3 17.2,11.4 0.6,0.4 2.4,1.7 -0.3,-0.3 0.6,0.5 1.3,1 1.9,1.5 1.3,1 2.5,2 3.7,3 2.6,2.2 5.2,4.4 7.9,6.6 5.1,4.3 10.2,8.6 15.3,12.9 10.8,9.1 21.8,17.9 34.7,23.8 13,6 26.6,9.7 40.9,10.6 14,0.8 27.9,-1.7 40.8,-7.1 12,-5.1 22.5,-12.4 33,-19.9 8.6,-6.1 17.8,-12.3 27.9,-15.8 8.7,-3 19.1,-4.8 27.9,-1.3 4.6,1.9 8.2,5.2 10.9,9.4 2.3,2.9 6.6,0.4 5,-2.6 l 0,0 z"
           class="st8"
           inkscape:connector-curvature="0"
           style="fill:#ff7381" />
      </g>
      <path
         id="path4496"
         d="m 1390.6,109.4 c -19,14.3 -12.4,39.5 -39.6,52.9 0,0 -0.1,19.6 -13.1,31.4 l 1.8,4.9 c 0,0 19.4,-13.9 19.9,-30.5 0,0 28,7 49,-21"
         class="st3"
         inkscape:connector-curvature="0"
         style="fill:#618bff" />
      <path
         id="path4498"
         d="m 1522.9,54.4 34.7,-30.6 c 0.6,-0.6 1.5,0.3 1,0.9 L 1531.3,62 c -0.2,0.3 -0.7,0.4 -1,0.1 l -7.3,-6.8 c -0.5,-0.1 -0.5,-0.6 -0.1,-0.9 z"
         class="st8"
         inkscape:connector-curvature="0"
         style="fill:#ff7381" />
      <path
         id="path4500"
         d="m 1376.3,132.6 c 14.4,-30.6 24.1,-38.6 58.9,-16.5 29.1,18.6 50.2,-41.2 76.4,-52.6 11.9,-5.2 40.7,1.8 47.9,5.3 0,0 3.6,10 -4.5,10.5 -2.3,0.1 -6.9,-5.4 -6.9,-5.4 l -11.5,3.7 c 0,0 -2.7,7.5 -9.9,8.7 -7.2,1.2 -11.6,-7.3 -13.6,-4.6 -5.2,7.1 -12.6,22.2 -13.1,47 -0.4,20 -16.1,31.5 -33,35.8 -28.6,7.3 -58.2,-7.1 -58.2,-7.1 0,0 -11,-2.7 -17.2,-6.8 -6.2,-4.1 -15.3,-18 -15.3,-18 z"
         class="st3"
         inkscape:connector-curvature="0"
         style="fill:#618bff" />
      <path
         id="path4502"
         d="m 1519.8,62.6 c 0,0 -2.6,-12 -4.5,-12 -2,0 -4.1,14.8 -4.1,14.8 l 8.6,-2.8 z"
         class="st3"
         inkscape:connector-curvature="0"
         style="fill:#618bff" />
      <path
         id="path4504"
         d="m 1512.7,66.3 c 0.9,-6.6 6.3,-16.5 12.5,-16.2 6.5,0.4 11.2,11.3 16,3.2 6.4,7.6 -1.9,14.8 -9,12.1 -12.7,-4.8 -19.7,1.7 -19.7,1.1"
         class="st5"
         inkscape:connector-curvature="0"
         style="fill:#3af7d1" />
      <g
         id="g4506">
        <defs
           id="defs4508">
          <path
             d="m 1408.7,147 c -21.1,28.1 -49,21 -49,21 -0.5,16.6 -19.9,30.5 -19.9,30.5 l -1.8,-4.9 c 13,-11.8 13.1,-31.4 13.1,-31.4 27.2,-13.3 18.5,-33.2 37.5,-47.5"
             id="SVGID_3_"
             inkscape:connector-curvature="0" />
        </defs>
        <clipPath
           id="SVGID_4_">
          <use
             id="use4512"
             style="overflow:visible"
             xlink:href="#SVGID_3_"
             x="0"
             y="0"
             width="100%"
             height="100%" />
        </clipPath>
        <polygon
           clip-path="url(#SVGID_4_)"
           id="polygon4514"
           points="1337.1,187.1 1348.4,195.9 1339.9,203.1 1330.1,194.4 "
           class="st9"
           style="fill:#222b37" />
      </g>
      <path
         id="path4516"
         d="m 1423.8,159.2 c 0,0 -10.9,16.4 -27.7,15.1 0,0 5.4,11.5 -0.7,23.7 l -4.4,-2.4 c 0,0 6.8,-15.7 -6.1,-22.5 0,0 21.2,-8.3 20.9,-22.8"
         class="st3"
         inkscape:connector-curvature="0"
         style="fill:#618bff" />
      <g
         id="g4518">
        <defs
           id="defs4520">
          <path
             d="m 1423.8,159.2 c 0,0 -10.9,16.4 -27.7,15.1 0,0 5.4,11.5 -0.7,23.7 l -4.4,-2.4 c 0,0 6.8,-15.7 -6.1,-22.5 0,0 21.2,-8.3 20.9,-22.8"
             id="SVGID_5_"
             inkscape:connector-curvature="0" />
        </defs>
        <clipPath
           id="SVGID_6_">
          <use
             id="use4524"
             style="overflow:visible"
             xlink:href="#SVGID_5_"
             x="0"
             y="0"
             width="100%"
             height="100%" />
        </clipPath>
        <polygon
           clip-path="url(#SVGID_6_)"
           id="polygon4526"
           points="1389.3,188.5 1403.2,192 1398.4,202 1386,198 "
           class="st10"
           style="fill:#222b37" />
      </g>
      <path
         id="path4528"
         d="m 1495.5,125 c 0,0 33,-2.3 35.8,6.9 3.7,12.4 -10.1,35.6 -10.1,35.6 l -4.3,-3.5 c 0,0 10.9,-25 4.8,-29.1 -6.1,-4.1 -27.7,9.7 -29,10 -1.3,0.2 2.8,-19.9 2.8,-19.9 z"
         class="st3"
         inkscape:connector-curvature="0"
         style="fill:#618bff" />
      <g
         id="g4530">
        <defs
           id="defs4532">
          <path
             d="m 1495.5,125 c 0,0 33,-2.3 35.8,6.9 3.7,12.4 -10.1,35.6 -10.1,35.6 l -4.3,-3.5 c 0,0 10.9,-25 4.8,-29.1 -6.1,-4.1 -27.7,9.7 -29,10 -1.3,0.2 2.8,-19.9 2.8,-19.9 z"
             id="SVGID_7_"
             inkscape:connector-curvature="0" />
        </defs>
        <clipPath
           id="SVGID_8_">
          <use
             id="use4536"
             style="overflow:visible"
             xlink:href="#SVGID_7_"
             x="0"
             y="0"
             width="100%"
             height="100%" />
        </clipPath>
        <polygon
           clip-path="url(#SVGID_8_)"
           id="polygon4538"
           points="1514.2,157.6 1527.3,163.4 1520.8,172.5 1509.2,166.4 "
           class="st11"
           style="fill:#222b37" />
      </g>
      <path
         id="path4540"
         d="m 1475.9,145.5 c 0,0 33.9,2.3 34.1,11.9 0.2,12.9 -11.5,40.6 -11.5,40.6 l -5.1,-2.2 c 0,0 9.8,-28.1 5.1,-33.7 -4.8,-5.6 -29.3,1.9 -30.6,1.8 -1.4,-0.1 8,-18.4 8,-18.4 z"
         class="st3"
         inkscape:connector-curvature="0"
         style="fill:#618bff" />
      <g
         id="g4542">
        <defs
           id="defs4544">
          <path
             d="m 1475.9,145.5 c 0,0 33.9,2.3 34.1,11.9 0.2,12.9 -11.5,40.6 -11.5,40.6 l -5.1,-2.2 c 0,0 10,-30.4 5.2,-36 -4.8,-5.6 -29.4,4.2 -30.7,4.1 -1.4,-0.1 8,-18.4 8,-18.4 z"
             id="SVGID_9_"
             inkscape:connector-curvature="0" />
        </defs>
        <clipPath
           id="SVGID_10_">
          <use
             id="use4548"
             style="overflow:visible"
             xlink:href="#SVGID_9_"
             x="0"
             y="0"
             width="100%"
             height="100%" />
        </clipPath>
        <polygon
           clip-path="url(#SVGID_10_)"
           id="polygon4550"
           points="1491.1,189.1 1504.9,194.4 1495.5,201.7 1483.3,196.3 "
           class="st12"
           style="fill:#222b37" />
      </g>
      <g
         id="g4552">
        <defs
           id="defs4554">
          <path
             d="m 1509.1,67 c 0.8,-0.1 -6.8,-19.8 -31.8,-15.5 -18.1,3.1 -31.5,27.5 -32.1,63.6 0,0 -7.9,-13.9 -17.4,-5.9 -8,6.8 4.5,25.2 25.7,21.7 24,-3.9 34.5,-61.1 55.6,-63.9 z"
             id="SVGID_11_"
             inkscape:connector-curvature="0" />
        </defs>
        <use
           id="use4557"
           style="overflow:visible;fill:#3af7d1"
           xlink:href="#SVGID_11_"
           x="0"
           y="0"
           width="100%"
           height="100%" />
        <clipPath
           id="SVGID_12_">
          <use
             id="use4560"
             style="overflow:visible"
             xlink:href="#SVGID_11_"
             x="0"
             y="0"
             width="100%"
             height="100%" />
        </clipPath>
      </g>
      <path
         id="path4562"
         d="m 1514.9,65.6 c 0,0 -7.3,-9.7 -9.5,-9 -2.2,0.6 0.4,17.6 0.4,17.6 l 9.1,-8.6 z"
         class="st3"
         inkscape:connector-curvature="0"
         style="fill:#618bff" />
      <g
         id="g4564">
        <defs
           id="defs4566">
          <path
             d="m 1376.3,132.6 c 14.4,-30.6 24.1,-38.6 58.9,-16.5 29.1,18.6 50.2,-41.2 76.4,-52.6 11.9,-5.2 40.7,1.8 47.9,5.3 0,0 3.6,10 -4.5,10.5 -2.3,0.1 -6.9,-5.4 -6.9,-5.4 l -11.5,3.7 c 0,0 -2.7,7.5 -9.9,8.7 -7.2,1.2 -11.6,-7.3 -13.6,-4.6 -5.2,7.1 -12.6,22.2 -13.1,47 -0.4,20 -16.1,31.5 -33,35.8 -28.6,7.3 -58.2,-7.1 -58.2,-7.1 0,0 -11,-2.7 -17.2,-6.8 -6.2,-4.1 -15.3,-18 -15.3,-18 z"
             id="SVGID_13_"
             inkscape:connector-curvature="0" />
        </defs>
        <clipPath
           id="SVGID_14_">
          <use
             id="use4570"
             style="overflow:visible"
             xlink:href="#SVGID_13_"
             x="0"
             y="0"
             width="100%"
             height="100%" />
        </clipPath>
      </g>
      <ellipse
         id="ellipse4572"
         ry="0.89999998"
         rx="2"
         cy="72.300003"
         cx="1556.7"
         class="st13"
         transform="matrix(0.3375,-0.9413,0.9413,0.3375,963.3307,1513.2665)"
         style="fill:#222b37" />
      <circle
         id="ellipse4574"
         cy="71.900002"
         cx="1523.8"
         class="st13"
         transform="matrix(0.1227,-0.9924,0.9924,0.1227,1265.4736,1575.4249)"
         r="3.0999999"
         style="fill:#222b37" />
      <path
         id="path4576"
         d="m 1424.2,160.6 c -6.4,0 -12.9,-1.5 -18.7,-4.4 -0.2,-0.1 0,-0.7 0.2,-0.6 6.2,1.5 12.3,2.8 18.5,4.3 0.3,0.1 0.3,0.7 0,0.7 z"
         class="st14"
         inkscape:connector-curvature="0"
         style="fill:#202020" />
      <path
         id="path4578"
         d="m 1496.1,141.9 c 0.8,-5.7 1.8,-11.2 3,-16.8 0,-0.2 0.7,-0.2 0.7,0.1 0.2,5.8 -0.8,11.6 -3,17 -0.1,0.1 -0.7,0 -0.7,-0.3 z"
         class="st14"
         inkscape:connector-curvature="0"
         style="fill:#202020" />
    </g>
  </g>
  <g
     inkscape:groupmode="layer"
     id="layer3"
     inkscape:label="final"
     style="display:inline">
    <g
       id="g5229">
      <text
         xml:space="preserve"
         style="font-style:normal;font-weight:normal;font-size:40px;line-height:125%;font-family:sans-serif;letter-spacing:0px;word-spacing:0px;fill:#292929;fill-opacity:1;stroke:none;stroke-width:1px;stroke-linecap:butt;stroke-linejoin:miter;stroke-opacity:1"
         x="-248.25583"
         y="1230.6274"
         id="text4969"
         sodipodi:linespacing="125%"
         transform="matrix(1,0,0.53589838,1,0,0)"><tspan
           sodipodi:role="line"
           id="tspan4971"
           x="-248.25583"
           y="1230.6274"
           style="font-size:1250px;fill:#292929;fill-opacity:1">D</tspan></text>
      <text
         transform="matrix(1,0,0.53589838,1,-13.170215,46.726929)"
         sodipodi:linespacing="125%"
         id="text4973"
         y="1183.9005"
         x="-210.04477"
         style="font-style:normal;font-weight:normal;font-size:40px;line-height:125%;font-family:sans-serif;letter-spacing:0px;word-spacing:0px;fill:#1d1d1d;fill-opacity:1;stroke:none;stroke-width:1px;stroke-linecap:butt;stroke-linejoin:miter;stroke-opacity:1"
         xml:space="preserve"
         clip-path="url(#clipPath4433)"><tspan
           style="font-size:1250px;fill:#1d1d1d;fill-opacity:1"
           y="1183.9005"
           x="-210.04477"
           id="tspan4975"
           sodipodi:role="line">D</tspan></text>
      <text
         xml:space="preserve"
         style="font-style:normal;font-weight:normal;font-size:40px;line-height:125%;font-family:sans-serif;letter-spacing:0px;word-spacing:0px;fill:#383838;fill-opacity:1;stroke:none;stroke-width:1px;stroke-linecap:butt;stroke-linejoin:miter;stroke-opacity:1"
         x="64.275261"
         y="1030.6274"
         id="text4977"
         sodipodi:linespacing="125%"
         transform="matrix(1,0,0.53856824,1,0,0)"><tspan
           sodipodi:role="line"
           id="tspan4979"
           x="64.275261"
           y="1030.6274"
           style="font-size:1250px;fill:#383838;fill-opacity:1">B</tspan></text>
    </g>
    <text
       xml:space="preserve"
       style="font-style:normal;font-weight:normal;font-size:40px;line-height:125%;font-family:sans-serif;letter-spacing:0px;word-spacing:0px;fill:#383838;fill-opacity:1;stroke:none;stroke-width:1px;stroke-linecap:butt;stroke-linejoin:miter;stroke-opacity:1"
       x="64.275261"
       y="1030.6274"
       id="text5182"
       sodipodi:linespacing="125%"
       transform="matrix(1,0,0.53856824,1,0,0)"><tspan
         sodipodi:role="line"
         id="tspan5184"
         x="64.275261"
         y="1030.6274"
         style="font-size:1250px;fill:#383838;fill-opacity:1">B</tspan></text>
    <g
       style="display:inline"
       transform="matrix(3.0444047,-1.0888292,1.0888292,3.0444047,-3510.9633,1863.2191)"
       id="g4981">
      <g
         class="st2"
         id="g4983"
         mask="url(#SVGID_1_)">
        <path
           style="fill:#618bff"
           inkscape:connector-curvature="0"
           class="st3"
           d="m 1397.6,125.7 c -5.9,-6 -13.6,-9.6 -22.1,-9 -9.2,0.6 -17.6,5 -25,10.3 -8.6,6.3 -15.6,14 -22.6,22 -6.5,7.3 -13.8,14.2 -21.5,20.2 -16.2,12.7 -35.4,19.4 -55.3,19.2 -2.8,0 -5.6,-0.2 -8.5,-0.5 0,0 -2.2,-0.2 -0.9,-0.1 1.3,0.1 -0.8,-0.1 -0.9,-0.1 -1.7,-0.3 -3.4,-0.6 -5.1,-0.9 -5.6,-1.2 -11,-2.9 -16.4,-4.7 -1.5,-0.5 -2.9,-1.1 -4.4,-1.6 -0.6,-0.2 -1.2,-0.5 -1.9,-0.8 0.3,0.1 1.8,0.8 0.3,0.1 -2.8,-1.4 -5.5,-2.6 -8.3,-4 -5.1,-2.6 -10.2,-5.3 -15.2,-7.9 -20.9,-11.1 -42.8,-21.2 -66.4,-24.7 -23.1,-3.4 -46.1,-2.7 -68.8,2.9 -21.2,5.2 -41.5,14.4 -60.2,25.5 -18.6,11.1 -35.5,24.6 -53,37.2 -18,13 -36.4,25.3 -56,35.7 -4.9,2.6 -9.8,5.1 -14.8,7.4 -2.4,1.1 -4.9,2.1 -7.3,3.2 -0.1,0.1 4,-1.6 1.9,-0.8 -0.6,0.2 -1.1,0.5 -1.7,0.7 -1.3,0.5 -2.6,1.1 -4,1.6 -10.3,4 -21,7.3 -31.8,9.7 -5,1.1 -10.1,2 -15.2,2.7 1.8,-0.2 3.6,-0.5 5.4,-0.7 -15,2 -30.2,2 -45.2,0.1 1.8,0.2 3.7,0.5 5.5,0.7 -7.7,-1 -15.3,-2.6 -22.8,-4.7 -3.8,-1.1 -7.6,-2.3 -11.3,-3.7 -1.6,-0.6 -3.2,-1.3 -4.8,-1.9 7,2.7 0.3,0.1 -1.5,-0.8 -6.8,-3.2 -13.2,-7 -19.3,-11.4 -0.8,-0.6 -1.6,-1.2 -2.5,-1.8 5.4,4 2.4,1.9 1.2,0.8 -1.2,-1.1 -2.4,-2.4 -3.6,-3.6 -2.9,-3 -5.6,-6.1 -8.1,-9.3 1.2,1.6 2.4,3.1 3.6,4.7 -3.1,-4.1 -6.2,-8.1 -9.3,-12.2 1.2,1.6 2.5,3.2 3.7,4.8 -0.9,-1.1 -1.7,-2.2 -2.5,-3.4 -3.7,-5.1 -7.8,-9.1 -14.1,-10.8 -5.6,-1.6 -13.2,-0.9 -18.2,2.4 -9.9,6.4 -16.1,21.5 -8.5,32.2 4.5,6.3 9.1,12 14.8,17.1 5.5,4.9 11.6,9.1 17.5,13.4 10.7,7.8 22.1,13.7 34.4,18.6 23,9.2 48.8,12.7 73.4,11.4 58.1,-3.1 109.2,-32.1 154.8,-66.2 6.5,-4.9 13,-9.9 19.5,-14.9 2.8,-2.1 5.5,-4.3 8.2,-6.4 1.3,-1 2.6,-2 3.9,-3 0.6,-0.5 1.3,-1 1.9,-1.5 1.8,-1.4 -3,2.3 -0.3,0.3 10.7,-8.1 21.8,-15.8 33.5,-22.5 5.7,-3.2 11.5,-6.3 17.5,-9 1.4,-0.6 2.8,-1.3 4.2,-1.9 3,-1.3 -0.9,0.3 -1,0.4 0.2,-0.4 2.2,-0.9 2.7,-1.1 3,-1.2 6,-2.3 9.1,-3.3 6.1,-2 12.4,-3.8 18.7,-5.1 3.2,-0.7 6.4,-1.2 9.6,-1.7 2.3,-0.4 -3.4,0.4 -1,0.1 0.8,-0.1 1.5,-0.2 2.3,-0.3 1.7,-0.2 3.5,-0.3 5.2,-0.5 6.7,-0.5 13.4,-0.5 20.1,-0.1 1.6,0.1 3.2,0.2 4.8,0.4 0.8,0.1 1.6,0.2 2.4,0.2 0.2,0 4.3,0.4 1.5,0.2 -2.4,-0.2 0.3,0.1 0.9,0.1 0.8,0.1 1.7,0.3 2.5,0.4 1.9,0.3 3.8,0.7 5.7,1.1 7,1.5 13.9,3.6 20.7,6.2 1.6,0.6 3.1,1.2 4.7,1.8 0.8,0.3 1.6,0.6 2.3,0.9 3.8,1.5 -2,-0.9 0.3,0.1 3.3,1.4 6.5,2.9 9.8,4.4 1.6,0.7 3.2,1.5 4.9,2.1 -3,-1.1 -0.9,-0.3 -0.2,-0.1 1.7,0.8 3.5,1.6 5.2,2.3 3.3,1.5 6.6,3 9.9,4.4 7.6,3.3 15.2,6.7 23,9.1 14.8,4.6 30.9,6.1 46.3,4.2 15.1,-1.9 29.9,-6.7 42.7,-15.2 10.5,-7 19.5,-15.8 27.4,-25.7 8.2,-10.3 15.3,-21.5 24.6,-31 7.8,-7.9 18.3,-16.7 30,-16.9 5.6,-0.1 10.6,2.3 14.8,5.9 3,2.6 6.6,-0.9 4.2,-3.4 l 0,0 z"
           id="path4985" />
        <path
           style="fill:#2ccafa"
           inkscape:connector-curvature="0"
           class="st4"
           d="m 1396.1,121.4 c -12.9,-14 -32.3,-10.6 -47.3,-2.1 -7.9,4.5 -14.5,10.5 -21,16.8 -6.8,6.7 -13.8,13.2 -21.5,19 -16.6,12.6 -35.5,18.9 -56.1,17.9 -2.3,-0.1 -6.3,-0.5 -7.5,-0.6 0.5,0.1 -2.2,-0.4 -2.8,-0.5 -1.5,-0.3 -3,-0.6 -4.4,-0.9 -2.8,-0.6 -5.5,-1.4 -8.2,-2.3 -1.5,-0.5 -2.9,-1 -4.4,-1.5 -0.6,-0.2 -1.2,-0.5 -1.9,-0.7 -0.2,-0.1 -2.6,-1 -1.4,-0.5 2.1,0.8 -3.4,-1.4 -2.9,-1.2 0.3,0.1 1.8,0.8 0.3,0.1 -1.4,-0.6 -2.8,-1.3 -4.3,-2 -2.5,-1.2 -5,-2.5 -7.5,-3.9 -5,-2.7 -9.9,-5.4 -14.8,-8.2 -20,-11.3 -40.9,-21.8 -63.6,-26.1 -23.1,-4.4 -46.3,-4.2 -69.3,0.5 -21.2,4.4 -41.7,12.9 -60.6,23.4 C 978,159 960.8,172 943,184.2 c -17.9,12.3 -36.3,24.1 -55.7,34.1 -4.7,2.4 -9.5,4.8 -14.4,6.9 -1.1,0.5 -2.2,1 -3.4,1.5 -0.7,0.3 -1.6,0.6 -2.3,1 -0.1,0.1 3.9,-1.6 1.9,-0.8 -2.7,1 -5.3,2.1 -8,3.1 -10.2,3.8 -20.6,7 -31.2,9.3 -5.1,1.1 -10.3,2 -15.5,2.7 1.8,-0.2 3.6,-0.5 5.4,-0.7 -15.2,2 -30.7,2 -45.9,0 1.8,0.2 3.7,0.5 5.5,0.7 -7.8,-1.1 -15.5,-2.7 -23.1,-4.9 -3.6,-1 -7.2,-2.2 -10.7,-3.5 -1.8,-0.7 -8.3,-3.7 -1.6,-0.5 -1.7,-0.8 -3.4,-1.5 -5.1,-2.3 -6.9,-3.3 -13.5,-7.2 -19.6,-11.6 -0.8,-0.6 -1.7,-1.1 -2.4,-1.8 0.7,0.7 4.3,3.4 1.6,1.2 -1.5,-1.2 -2.8,-2.4 -4.1,-3.8 -2.8,-2.9 -5.5,-6 -8,-9.3 1.2,1.5 2.4,3.1 3.6,4.6 -3.1,-4 -5.9,-8.2 -9.1,-12.2 1.2,1.6 2.5,3.2 3.7,4.8 -1.5,-1.9 -2.9,-3.9 -4.3,-5.9 -3.5,-5.1 -8,-9.1 -14.1,-10.8 -5.6,-1.6 -13.2,-0.9 -18.2,2.4 -10.1,6.5 -15.9,21.3 -8.5,32.2 4.2,6.3 8.9,12.1 14.4,17.3 2,1.9 4.1,3.6 6.2,5.3 2.3,1.8 4.6,3.6 6.9,5.3 0.5,0.4 1.1,0.8 1.6,1.2 3.1,2.3 -4,-3.2 -1.1,-0.9 10.4,8 21,15 33.2,20.3 24.1,10.3 50,15.6 76.3,15 57.6,-1.1 109.6,-28.7 155.6,-61.1 22.6,-16 44,-33.7 68.3,-47 5.7,-3.1 11.4,-6 17.4,-8.6 1.2,-0.5 3.1,-2 -0.4,0.1 0.6,-0.4 1.5,-0.6 2.2,-0.9 1.4,-0.6 2.9,-1.1 4.3,-1.7 3.1,-1.2 6.2,-2.2 9.3,-3.2 6.2,-2 12.6,-3.6 19,-4.8 1.5,-0.3 3,-0.6 4.6,-0.8 0.8,-0.1 1.5,-0.2 2.3,-0.4 2.3,-0.4 -3.4,0.4 -1,0.1 3.5,-0.4 7,-0.7 10.5,-0.9 6.8,-0.4 13.6,-0.3 20.4,0.3 1.6,0.1 3.3,0.3 4.9,0.5 0.6,0.1 3.3,0.4 0.9,0.1 -2.4,-0.3 0.4,0.1 0.9,0.1 3.6,0.5 7.1,1.2 10.7,2 6.9,1.6 13.7,3.8 20.3,6.4 0.8,0.3 1.5,0.6 2.3,0.9 2.7,1.1 0.1,0 -0.3,-0.2 1.5,0.6 3,1.3 4.5,2 3.4,1.5 6.7,3.2 10.1,4.7 13.8,6.4 27.3,13.6 41.6,18.8 14.4,5.3 30.7,7.5 46,6.2 15.3,-1.2 30.4,-5.4 43.5,-13.6 10.6,-6.6 19.6,-15.4 27.8,-24.9 7.9,-9.1 15.2,-19 24.5,-26.8 8.1,-6.7 18.7,-12.8 29.6,-12.6 5.9,0.1 11.1,2.5 15.5,6.4 2.6,2.2 6.1,-1.3 3.8,-3.8 l 0,0 z"
           id="path4987" />
        <path
           style="fill:#3af7d1"
           inkscape:connector-curvature="0"
           class="st5"
           d="m 1396.4,117.4 c -11.3,-14 -29.6,-12.7 -44.6,-6.1 -16.5,7.3 -28.8,21.3 -43.4,31.5 -7.5,5.3 -15.5,10 -24.1,12.9 -10.1,3.4 -19.7,4.7 -30.3,4.3 -2.5,-0.1 -5.1,-0.3 -7.6,-0.6 0,0 -2,-0.3 -0.9,-0.1 1.1,0.2 -0.9,-0.2 -0.9,-0.2 -1.6,-0.3 -3.3,-0.6 -4.9,-1 -5.1,-1.1 -10.2,-2.7 -15.1,-4.6 -0.6,-0.2 -1.2,-0.5 -1.8,-0.7 0.5,0.2 2.1,1 -0.3,-0.1 -1.2,-0.5 -2.3,-1.1 -3.5,-1.6 -2.5,-1.2 -5,-2.5 -7.4,-3.8 -4.9,-2.7 -9.5,-5.6 -14.2,-8.6 -18.9,-12.1 -37.4,-24.3 -58.7,-32 -20.9,-7.6 -44.2,-10.5 -66.3,-8.9 -21.9,1.6 -43.2,7 -63.4,15.4 -20.9,8.8 -40.1,20.1 -59.5,31.8 -18.5,11.2 -37.2,22.1 -56.8,31.5 -2.3,1.1 -4.5,2.1 -6.8,3.2 -1.3,0.6 -2.7,1.2 -4,1.8 -0.6,0.3 -1.2,0.5 -1.7,0.7 -2.4,1.1 3.6,-1.5 1.2,-0.5 -5,2 -10,4 -15.2,5.8 -10,3.5 -20.3,6.5 -30.7,8.7 -5.4,1.1 -10.8,2.1 -16.2,2.8 1.8,-0.2 3.6,-0.5 5.4,-0.7 -15.6,2 -31.2,2.1 -46.8,0.1 1.8,0.2 3.7,0.5 5.5,0.7 -8.2,-1.1 -16.2,-2.8 -24.2,-5.1 -3.8,-1.1 -7.5,-2.3 -11.2,-3.7 -1,-0.4 -1.9,-0.7 -2.9,-1.1 -0.8,-0.3 -4.5,-1.9 -0.8,-0.3 3.7,1.6 0,0 -0.8,-0.4 -0.9,-0.4 -1.9,-0.9 -2.8,-1.3 -7.2,-3.4 -14.1,-7.5 -20.6,-12.2 -0.8,-0.6 -1.6,-1.4 -2.4,-1.8 0.9,0.7 1.8,1.4 2.7,2.1 -0.5,-0.4 -1.1,-0.8 -1.6,-1.3 -1.6,-1.3 -3.1,-2.6 -4.6,-4 -3.1,-2.8 -5.7,-5.8 -8.2,-9 1.2,1.5 2.3,3 3.5,4.5 -4.8,-6.2 -9,-13 -12.9,-19.7 -6.2,-10.6 -21.5,-15.4 -32.2,-8.5 -10.7,6.9 -15.1,20.9 -8.5,32.2 7,11.8 16.3,20.6 26.3,29.6 9.5,8.5 20.2,16 31.6,21.9 23.4,11.9 49,18.2 75.2,19.5 57.9,2.8 112.3,-22.5 160.4,-52.1 24,-14.7 46.8,-31.3 72.6,-43 1.4,-0.7 3.1,-1.2 4.4,-2 -0.4,0.2 -3.7,1.5 -0.9,0.4 0.7,-0.3 1.5,-0.6 2.2,-0.9 3.2,-1.3 6.4,-2.4 9.6,-3.6 6.4,-2.2 12.9,-4.1 19.5,-5.5 3.1,-0.7 6.2,-1.3 9.3,-1.8 0.8,-0.1 1.6,-0.3 2.3,-0.4 0.7,-0.1 3.3,-0.3 0.7,-0.1 -2.6,0.2 0.1,0 0.7,-0.1 1,-0.1 2,-0.2 3,-0.3 6.8,-0.6 13.7,-0.8 20.5,-0.6 3.3,0.1 6.6,0.4 9.8,0.7 0.8,0.1 1.7,0.2 2.5,0.3 3.5,0.4 -0.6,-0.1 -0.6,-0.1 0.1,-0.2 5.7,0.9 6.3,1.1 7.2,1.3 14.2,3.2 21.1,5.6 1.6,0.6 3.1,1.1 4.7,1.8 0.7,0.3 1.6,0.5 2.3,0.9 -0.4,-0.2 -3.1,-1.4 -0.4,-0.1 3.2,1.5 6.4,2.9 9.5,4.5 6.3,3.2 12.4,6.6 18.5,10 13,7.2 25.9,15.1 40,20.3 13.9,5.2 29.3,7.8 44.2,7 14.9,-0.8 29.4,-4.5 42.4,-11.9 11,-6.2 20.4,-14.8 29.1,-23.8 8.2,-8.5 16.1,-17.8 26,-24.4 8.5,-5.7 19.3,-10.8 29.8,-9.4 5.5,0.7 10.1,3.5 13.9,7.4 2.7,3.2 6.1,-0.4 4,-3 l 0,0 z"
           id="path4989" />
        <path
           style="fill:#ffe01b"
           inkscape:connector-curvature="0"
           class="st6"
           d="m 1397,115 c -10.6,-14.9 -29.1,-15.3 -44.9,-9.2 -8.1,3.1 -15.2,7.5 -22.1,12.7 -8.2,6.2 -16.6,12.2 -25.5,17.4 -8.5,5 -17.5,8.9 -27.2,10.9 -4.9,1 -9.5,1.4 -15,1.6 -2.7,0.1 -5.4,0 -8.1,-0.2 -1.4,-0.1 -2.9,-0.2 -4.3,-0.4 -1.4,-0.1 -0.2,0 0,0 -0.8,-0.1 -1.6,-0.2 -2.4,-0.4 -5.6,-1 -11.1,-2.4 -16.4,-4.3 -1.2,-0.4 -2.3,-0.9 -3.4,-1.3 -2.4,-0.9 -0.8,-0.3 -0.3,-0.1 -0.6,-0.2 -1.1,-0.5 -1.7,-0.8 -2.6,-1.2 -5.2,-2.5 -7.7,-3.9 -10,-5.6 -19.2,-12.4 -28.4,-19.2 -18.9,-14.1 -38.1,-27.1 -60.6,-34.8 -23,-7.8 -48.1,-10.6 -72.3,-7.9 -25.2,2.8 -48.8,10.2 -72,20.4 -21.6,9.5 -42.1,21.6 -63.3,31.8 -5.2,2.5 -10.4,5 -15.7,7.3 -2.5,1.1 -5.1,2.1 -7.6,3.3 0.4,-0.2 4.1,-1.7 1.1,-0.4 -0.6,0.2 -1.2,0.5 -1.8,0.7 -1.4,0.6 -2.8,1.1 -4.1,1.7 -10.8,4.3 -21.8,8.1 -33.1,11.2 -5.7,1.6 -11.5,3 -17.3,4.1 -2.7,0.5 -5.4,1.1 -8.1,1.5 -1.3,0.2 -2.5,0.4 -3.8,0.6 -1.2,0.2 -3.9,0.4 1.5,-0.2 -0.8,0.1 -1.7,0.2 -2.5,0.3 -10.7,1.3 -21.5,1.7 -32.2,1.2 -4.6,-0.2 -9.2,-0.7 -13.7,-1.3 1.8,0.2 3.6,0.5 5.5,0.7 -10.9,-1.5 -21.6,-3.9 -32,-7.5 -2.6,-0.9 -5.2,-1.8 -7.7,-2.8 -5.1,-2 3.6,1.6 0.3,0.1 -1.2,-0.6 -2.5,-1.1 -3.7,-1.7 -4.9,-2.3 -9.7,-4.9 -14.4,-7.8 -2.3,-1.4 -4.6,-2.9 -6.8,-4.5 -1.1,-0.8 -2.2,-1.6 -3.3,-2.4 -2.9,-2.1 4.6,3.7 0.3,0.2 -4.2,-3.4 -8.2,-7.1 -11.9,-11 -3.7,-4 2.3,3.4 0.2,0.5 -0.8,-1.1 -1.6,-2.2 -2.3,-3.3 -1.5,-2.2 -3,-4.5 -4.4,-6.8 -2.8,-4.7 -5.4,-9.7 -7.9,-14.6 -5.6,-11 -22,-15.1 -32.2,-8.5 -11.3,7.3 -14.4,20.4 -8.5,32.2 6.1,12 15.3,21.4 24.6,30.9 8.9,9.1 19.3,17.1 30.3,23.6 22.5,13.3 47.6,20.6 73.5,23.6 58.1,6.8 114.6,-16.1 164.9,-42.8 12.7,-6.7 25.1,-13.9 37.7,-20.8 6.5,-3.5 13,-6.8 19.7,-9.8 1.6,-0.7 3.1,-1.4 4.7,-2.1 0.6,-0.3 3.2,-1.3 0.8,-0.4 -2.4,1 0.2,-0.1 0.8,-0.3 3.3,-1.4 6.7,-2.6 10.1,-3.8 6.7,-2.4 13.5,-4.5 20.3,-6.2 3.2,-0.8 6.4,-1.5 9.7,-2.1 1.6,-0.3 3.2,-0.6 4.9,-0.9 0.8,-0.1 1.6,-0.3 2.4,-0.4 4.2,-0.7 -3.9,0.4 0.4,0 7,-0.7 14,-1.2 21.1,-1.1 3.3,0 6.7,0.2 10,0.5 1.7,0.1 3.4,0.3 5,0.5 0.8,0.1 3.3,0.3 -0.6,-0.1 1.1,0.1 2.1,0.3 3.2,0.5 7.2,1.2 14.3,2.8 21.2,5 3.5,1.1 6.9,2.4 10.3,3.6 2.2,0.8 -2.5,-1.1 -0.4,-0.2 0.8,0.3 1.5,0.7 2.3,1 1.7,0.8 3.4,1.6 5,2.4 12.4,6.2 23.9,14 35.5,21.5 5.7,3.7 11.4,7.4 17.2,10.9 2.9,1.7 5.8,3.4 8.8,4.9 0.7,0.4 1.5,0.8 2.2,1.1 1.1,0.5 5.6,2.4 3.4,1.5 -2.2,-0.9 2.3,1 3.3,1.4 0.9,0.4 1.9,0.8 2.8,1.1 13.5,5.2 28.2,7.8 42.6,7.3 14.5,-0.5 28.6,-4 41.4,-10.9 11.1,-5.9 20.7,-14.2 29.9,-22.7 8.4,-7.8 16.8,-15.8 27,-21.3 8.5,-4.6 19.2,-8.3 29,-6 5.1,1.3 9.3,4.2 12.6,8.2 1.8,2.7 5.8,-0.2 4.1,-2.7 l 0,0 z"
           id="path4991" />
        <path
           style="fill:#ffa200"
           inkscape:connector-curvature="0"
           class="st7"
           d="m 1397.2,111.3 c -9,-14.6 -26,-16.8 -41.4,-12.7 -17.7,4.6 -31.7,16.8 -47.5,25.3 -8.4,4.6 -17.2,8.4 -26.6,10.5 -5.1,1.2 -9.2,1.5 -14.6,1.6 -2.7,0.1 -5.3,0.1 -8,-0.1 -1.2,-0.1 -2.4,-0.2 -3.6,-0.3 -0.6,-0.1 -1.2,-0.1 -1.8,-0.2 -0.5,-0.1 -1.8,-0.3 -0.6,-0.1 -5.2,-0.8 -10.4,-2 -15.5,-3.7 -1.1,-0.4 -2.2,-0.8 -3.3,-1.2 -0.6,-0.2 -3.9,-1.6 -1.9,-0.7 -2.5,-1.1 -5,-2.3 -7.4,-3.6 -4.6,-2.4 -9,-5.2 -13.2,-8.2 -1,-0.7 -2,-1.4 -3,-2.1 -0.7,-0.5 -1.3,-1 -2,-1.5 0.2,0.1 1.7,1.4 0.5,0.4 -2.2,-1.8 -4.5,-3.6 -6.7,-5.5 -17.3,-14.4 -34.1,-29.8 -54.1,-40.5 -22.6,-12 -48.1,-18.5 -73.6,-19.4 -24.2,-0.9 -48.6,3.5 -71.6,10.8 -23.6,7.5 -45.9,18.5 -68.5,28.3 -1.9,0.8 1.4,-0.6 1.5,-0.6 -0.8,0.3 -1.6,0.7 -2.4,1 -1.2,0.5 -2.4,1 -3.6,1.5 -2.8,1.2 -5.7,2.3 -8.5,3.4 -5.3,2.1 -10.6,4.1 -15.9,6 -10.8,3.9 -21.8,7.3 -33,10.2 -5.7,1.4 -11.4,2.7 -17.1,3.8 -2.8,0.5 -5.5,1 -8.3,1.4 -0.8,0.1 -5.1,0.7 -1.9,0.3 3.3,-0.4 -1.6,0.2 -2.5,0.3 -11.7,1.3 -23.4,1.8 -35.1,1.1 -4.4,-0.2 -8.8,-0.7 -13.1,-1.2 1.8,0.2 3.6,0.5 5.4,0.7 -8.6,-1.2 -17.2,-3 -25.5,-5.4 -4.1,-1.2 -8.2,-2.6 -12.2,-4.1 -1,-0.4 -1.9,-0.7 -2.9,-1.1 -0.5,-0.2 -1,-0.4 -1.4,-0.6 -2,-0.8 2.9,1.3 2.6,1.1 -1.8,-1.2 -4.2,-1.8 -6.1,-2.8 -7.8,-3.8 -15.4,-8.2 -22.4,-13.3 -0.8,-0.6 -1.6,-1.2 -2.5,-1.8 -2.8,-2.1 3.8,3.1 1.1,0.8 -1.7,-1.4 -3.4,-2.8 -5,-4.3 -3.2,-2.8 -6.2,-5.8 -9,-8.9 -0.8,-0.9 -1.6,-1.8 -2.4,-2.7 -0.6,-0.7 -3.8,-4.6 -1.2,-1.3 2.4,3.1 0,-0.3 -0.6,-1.2 -0.6,-1 -1.3,-2 -1.9,-3 -2.5,-4.3 -4.8,-8.7 -6.7,-13.3 0.8,1.9 1.6,3.7 2.4,5.6 -1.9,-4.8 -4.2,-9.4 -6.3,-14.1 -2.1,-5 -9.1,-9.5 -14.1,-10.8 -5.6,-1.6 -13.2,-0.9 -18.2,2.4 -5,3.2 -9.5,8.1 -10.8,14.1 -0.3,2.1 -0.6,4.2 -0.8,6.3 0,4.3 1.1,8.2 3.2,11.9 5.2,12.2 13.9,21.8 22.4,31.8 8.3,9.7 18.3,18 28.8,25.3 19.6,13.6 43,22.7 66.4,27.1 29.2,5.4 58.8,4.2 87.8,-1.9 29.3,-6.1 57.3,-17.4 84.5,-29.6 13.4,-6 26.6,-12.6 40,-18.7 1.7,-0.8 3.3,-1.5 5,-2.2 0.8,-0.4 1.7,-0.7 2.5,-1.1 2.4,-1 -2.9,1.2 -0.5,0.2 3.6,-1.4 7.1,-2.9 10.7,-4.2 7.1,-2.6 14.3,-5 21.6,-7 6.9,-1.9 14,-3.5 21.1,-4.6 0.9,-0.1 1.7,-0.3 2.6,-0.4 0.6,-0.1 3.4,-0.4 0.9,-0.1 -2.5,0.3 0.3,0 0.9,-0.1 0.9,-0.1 1.7,-0.2 2.6,-0.3 3.7,-0.4 7.3,-0.6 11,-0.7 7.4,-0.2 14.8,0 22.1,0.8 0.7,0.1 2,0 2.6,0.3 -0.4,-0.2 -3.8,-0.6 -0.5,0 1.8,0.3 3.5,0.6 5.3,0.9 3.8,0.7 7.5,1.6 11.2,2.6 3.6,1 7.1,2 10.6,3.2 1.8,0.6 3.6,1.3 5.3,1.9 0.9,0.3 1.7,0.7 2.6,1 1.9,0.7 -2.6,-1.2 0.2,0.1 6.2,2.9 12.2,6.1 17.9,9.7 11.5,7.2 22.3,15.7 33.2,23.8 11.6,8.6 23,16.3 36.3,21.8 12.8,5.3 26.6,8.1 40.5,8.2 14.4,0.1 28.3,-3.1 41.2,-9.3 11.3,-5.4 21.2,-13.2 30.8,-21.1 8.4,-6.9 17.2,-13.9 27.2,-18.4 8.6,-3.9 19.1,-6.6 28.4,-3.8 4.9,1.5 9,4.6 12,8.7 1.8,2.9 6.2,0.6 4.4,-2.4 l 0,0 z"
           id="path4993" />
        <path
           style="fill:#ff7381"
           inkscape:connector-curvature="0"
           class="st8"
           d="m 1397.4,107.8 c -7.7,-14.5 -23.6,-18 -38.7,-15.5 -17.7,2.8 -32.2,13.6 -48,21.2 -8.6,4.1 -17.6,7.7 -27,9.6 -4.6,0.9 -9.1,1.3 -14.1,1.3 -2.6,0 -5.3,-0.1 -7.9,-0.3 -1.2,-0.1 -2.4,-0.2 -3.6,-0.3 0,0 -1.9,-0.2 -0.9,-0.1 0.8,0.1 -1.2,-0.2 -1.4,-0.2 -4.9,-0.8 -9.8,-2 -14.5,-3.6 -1.3,-0.4 -2.5,-0.9 -3.8,-1.4 -0.6,-0.2 -3.1,-1.3 -1.3,-0.5 -2.2,-1 -4.5,-2.1 -6.6,-3.2 -4.6,-2.4 -9,-5.2 -13.2,-8.3 -0.8,-0.6 -2.8,-2.1 -0.9,-0.7 0.3,0.2 -4.3,-3.4 -2.3,-1.8 1.3,1 -0.3,-0.2 -0.4,-0.3 -2.1,-1.7 -4.2,-3.5 -6.3,-5.4 -16.3,-14.8 -31.1,-30.8 -49,-43.7 -19.1,-13.7 -41.9,-23.1 -65,-27.1 -24.7,-4.4 -49.4,-3.4 -74.1,1.2 -23,4.3 -44.6,12.5 -66.5,20.5 -22,8 -44.2,15.5 -67,20.8 -5.6,1.3 -11.3,2.5 -17,3.5 -2.6,0.5 -5.3,0.9 -7.9,1.3 -3.8,0.6 3.8,-0.4 0,0 -1.8,0.2 -3.5,0.4 -5.3,0.6 -11.5,1.2 -23.1,1.7 -34.7,1.2 -5.5,-0.3 -11.1,-0.7 -16.6,-1.5 1.8,0.2 3.6,0.5 5.4,0.7 -8.8,-1.2 -17.5,-3 -26,-5.6 -4.3,-1.3 -8.6,-2.7 -12.8,-4.3 -1,-0.4 -1.9,-0.8 -2.9,-1.1 -3.3,-1.3 4.4,1.9 1.1,0.5 -2.2,-1 -4.4,-2 -6.6,-3 -7.9,-3.8 -15.5,-8.3 -22.6,-13.5 -0.9,-0.7 -1.9,-1.7 -2.9,-2.1 -0.3,-0.2 4,3.1 2.3,1.7 -0.4,-0.3 -0.8,-0.6 -1.2,-1 -1.7,-1.4 -3.4,-2.8 -5.1,-4.3 -3.3,-2.9 -6.5,-6.1 -9.5,-9.3 -1.7,-1.9 -3.4,-3.8 -5,-5.8 -0.3,-0.4 -0.6,-0.8 -1,-1.2 -1.6,-2 3,4 1.5,1.9 -0.7,-1 -1.4,-1.9 -2.1,-2.9 -2.8,-4.3 -5,-9 -7,-13.7 0.8,1.8 1.5,3.6 2.3,5.5 -2,-4.7 -3.7,-9.5 -5.7,-14.3 0.8,1.9 1.6,3.8 2.4,5.6 -0.9,-2.3 -1.8,-4.5 -2.6,-6.9 -2,-5.8 -5.4,-10.9 -10.8,-14.1 -5.1,-3 -12.5,-4.2 -18.2,-2.4 -11.5,3.7 -20.8,16.5 -16.5,29 2.5,7.2 5.5,14.1 9.6,20.6 1.5,2.3 3,4.6 4.7,6.8 1.7,2.3 3.5,4.6 5.3,6.9 0.4,0.5 0.8,1.1 1.3,1.6 2.2,2.7 -2.7,-3.6 -1.2,-1.6 7.8,10.4 16.4,19.9 26.6,28 20.4,16.1 43.7,27.8 68.9,34.1 58.9,14.9 119.1,-0.4 174.4,-21.4 28,-10.7 55.3,-22.8 84.9,-28.2 1.7,-0.3 3.4,-0.6 5.1,-0.9 1.3,-0.2 6.2,-1.5 1.8,-0.3 3.4,-0.9 7.4,-0.8 10.9,-1 7.1,-0.5 14.2,-0.5 21.2,-0.1 3.3,0.2 7,0.2 10.3,0.9 -4.2,-1 0.8,0.1 2,0.3 2.2,0.4 4.3,0.8 6.4,1.2 7.2,1.5 14.3,3.6 21.2,6.1 1.7,0.6 3.4,1.3 5.1,2 2.3,0.9 -2.3,-1.1 0,0 0.8,0.4 1.7,0.8 2.6,1.2 3.3,1.5 6.5,3.1 9.6,4.9 6,3.4 11.6,7.3 17.2,11.4 0.6,0.4 2.4,1.7 -0.3,-0.3 0.6,0.5 1.3,1 1.9,1.5 1.3,1 2.5,2 3.7,3 2.6,2.2 5.2,4.4 7.9,6.6 5.1,4.3 10.2,8.6 15.3,12.9 10.8,9.1 21.8,17.9 34.7,23.8 13,6 26.6,9.7 40.9,10.6 14,0.8 27.9,-1.7 40.8,-7.1 12,-5.1 22.5,-12.4 33,-19.9 8.6,-6.1 17.8,-12.3 27.9,-15.8 8.7,-3 19.1,-4.8 27.9,-1.3 4.6,1.9 8.2,5.2 10.9,9.4 2.3,2.9 6.6,0.4 5,-2.6 l 0,0 z"
           id="path4995" />
      </g>
      <path
         style="fill:#618bff"
         inkscape:connector-curvature="0"
         class="st3"
         d="m 1390.6,109.4 c -19,14.3 -12.4,39.5 -39.6,52.9 0,0 -0.1,19.6 -13.1,31.4 l 1.8,4.9 c 0,0 19.4,-13.9 19.9,-30.5 0,0 28,7 49,-21"
         id="path4997" />
      <path
         style="fill:#ff7381"
         inkscape:connector-curvature="0"
         class="st8"
         d="m 1522.9,54.4 34.7,-30.6 c 0.6,-0.6 1.5,0.3 1,0.9 L 1531.3,62 c -0.2,0.3 -0.7,0.4 -1,0.1 l -7.3,-6.8 c -0.5,-0.1 -0.5,-0.6 -0.1,-0.9 z"
         id="path4999" />
      <path
         style="fill:#618bff"
         inkscape:connector-curvature="0"
         class="st3"
         d="m 1376.3,132.6 c 14.4,-30.6 24.1,-38.6 58.9,-16.5 29.1,18.6 50.2,-41.2 76.4,-52.6 11.9,-5.2 40.7,1.8 47.9,5.3 0,0 3.6,10 -4.5,10.5 -2.3,0.1 -6.9,-5.4 -6.9,-5.4 l -11.5,3.7 c 0,0 -2.7,7.5 -9.9,8.7 -7.2,1.2 -11.6,-7.3 -13.6,-4.6 -5.2,7.1 -12.6,22.2 -13.1,47 -0.4,20 -16.1,31.5 -33,35.8 -28.6,7.3 -58.2,-7.1 -58.2,-7.1 0,0 -11,-2.7 -17.2,-6.8 -6.2,-4.1 -15.3,-18 -15.3,-18 z"
         id="path5001" />
      <path
         style="fill:#618bff"
         inkscape:connector-curvature="0"
         class="st3"
         d="m 1519.8,62.6 c 0,0 -2.6,-12 -4.5,-12 -2,0 -4.1,14.8 -4.1,14.8 l 8.6,-2.8 z"
         id="path5003" />
      <path
         style="fill:#3af7d1"
         inkscape:connector-curvature="0"
         class="st5"
         d="m 1512.7,66.3 c 0.9,-6.6 6.3,-16.5 12.5,-16.2 6.5,0.4 11.2,11.3 16,3.2 6.4,7.6 -1.9,14.8 -9,12.1 -12.7,-4.8 -19.7,1.7 -19.7,1.1"
         id="path5005" />
      <g
         id="g5007">
        <defs
           id="defs5009">
          <path
             inkscape:connector-curvature="0"
             id="path5011"
             d="m 1408.7,147 c -21.1,28.1 -49,21 -49,21 -0.5,16.6 -19.9,30.5 -19.9,30.5 l -1.8,-4.9 c 13,-11.8 13.1,-31.4 13.1,-31.4 27.2,-13.3 18.5,-33.2 37.5,-47.5" />
        </defs>
        <clipPath
           id="clipPath5013">
          <use
             height="100%"
             width="100%"
             y="0"
             x="0"
             xlink:href="#SVGID_3_"
             style="overflow:visible"
             id="use5015" />
        </clipPath>
        <polygon
           style="fill:#222b37"
           class="st9"
           points="1337.1,187.1 1348.4,195.9 1339.9,203.1 1330.1,194.4 "
           id="polygon5017"
           clip-path="url(#SVGID_4_)" />
      </g>
      <path
         style="fill:#618bff"
         inkscape:connector-curvature="0"
         class="st3"
         d="m 1423.8,159.2 c 0,0 -10.9,16.4 -27.7,15.1 0,0 5.4,11.5 -0.7,23.7 l -4.4,-2.4 c 0,0 6.8,-15.7 -6.1,-22.5 0,0 21.2,-8.3 20.9,-22.8"
         id="path5019" />
      <g
         id="g5021">
        <defs
           id="defs5023">
          <path
             inkscape:connector-curvature="0"
             id="path5025"
             d="m 1423.8,159.2 c 0,0 -10.9,16.4 -27.7,15.1 0,0 5.4,11.5 -0.7,23.7 l -4.4,-2.4 c 0,0 6.8,-15.7 -6.1,-22.5 0,0 21.2,-8.3 20.9,-22.8" />
        </defs>
        <clipPath
           id="clipPath5027">
          <use
             height="100%"
             width="100%"
             y="0"
             x="0"
             xlink:href="#SVGID_5_"
             style="overflow:visible"
             id="use5029" />
        </clipPath>
        <polygon
           style="fill:#222b37"
           class="st10"
           points="1389.3,188.5 1403.2,192 1398.4,202 1386,198 "
           id="polygon5031"
           clip-path="url(#SVGID_6_)" />
      </g>
      <path
         style="fill:#618bff"
         inkscape:connector-curvature="0"
         class="st3"
         d="m 1495.5,125 c 0,0 33,-2.3 35.8,6.9 3.7,12.4 -10.1,35.6 -10.1,35.6 l -4.3,-3.5 c 0,0 10.9,-25 4.8,-29.1 -6.1,-4.1 -27.7,9.7 -29,10 -1.3,0.2 2.8,-19.9 2.8,-19.9 z"
         id="path5033" />
      <g
         id="g5035">
        <defs
           id="defs5037">
          <path
             inkscape:connector-curvature="0"
             id="path5039"
             d="m 1495.5,125 c 0,0 33,-2.3 35.8,6.9 3.7,12.4 -10.1,35.6 -10.1,35.6 l -4.3,-3.5 c 0,0 10.9,-25 4.8,-29.1 -6.1,-4.1 -27.7,9.7 -29,10 -1.3,0.2 2.8,-19.9 2.8,-19.9 z" />
        </defs>
        <clipPath
           id="clipPath5041">
          <use
             height="100%"
             width="100%"
             y="0"
             x="0"
             xlink:href="#SVGID_7_"
             style="overflow:visible"
             id="use5043" />
        </clipPath>
        <polygon
           style="fill:#222b37"
           class="st11"
           points="1514.2,157.6 1527.3,163.4 1520.8,172.5 1509.2,166.4 "
           id="polygon5045"
           clip-path="url(#SVGID_8_)" />
      </g>
      <path
         style="fill:#618bff"
         inkscape:connector-curvature="0"
         class="st3"
         d="m 1475.9,145.5 c 0,0 33.9,2.3 34.1,11.9 0.2,12.9 -11.5,40.6 -11.5,40.6 l -5.1,-2.2 c 0,0 9.8,-28.1 5.1,-33.7 -4.8,-5.6 -29.3,1.9 -30.6,1.8 -1.4,-0.1 8,-18.4 8,-18.4 z"
         id="path5047" />
      <g
         id="g5049">
        <defs
           id="defs5051">
          <path
             inkscape:connector-curvature="0"
             id="path5053"
             d="m 1475.9,145.5 c 0,0 33.9,2.3 34.1,11.9 0.2,12.9 -11.5,40.6 -11.5,40.6 l -5.1,-2.2 c 0,0 10,-30.4 5.2,-36 -4.8,-5.6 -29.4,4.2 -30.7,4.1 -1.4,-0.1 8,-18.4 8,-18.4 z" />
        </defs>
        <clipPath
           id="clipPath5055">
          <use
             height="100%"
             width="100%"
             y="0"
             x="0"
             xlink:href="#SVGID_9_"
             style="overflow:visible"
             id="use5057" />
        </clipPath>
        <polygon
           style="fill:#222b37"
           class="st12"
           points="1491.1,189.1 1504.9,194.4 1495.5,201.7 1483.3,196.3 "
           id="polygon5059"
           clip-path="url(#SVGID_10_)" />
      </g>
      <g
         id="g5061">
        <defs
           id="defs5063">
          <path
             inkscape:connector-curvature="0"
             id="path5065"
             d="m 1509.1,67 c 0.8,-0.1 -6.8,-19.8 -31.8,-15.5 -18.1,3.1 -31.5,27.5 -32.1,63.6 0,0 -7.9,-13.9 -17.4,-5.9 -8,6.8 4.5,25.2 25.7,21.7 24,-3.9 34.5,-61.1 55.6,-63.9 z" />
        </defs>
        <use
           height="100%"
           width="100%"
           y="0"
           x="0"
           xlink:href="#SVGID_11_"
           style="overflow:visible;fill:#3af7d1"
           id="use5067" />
        <clipPath
           id="clipPath5069">
          <use
             height="100%"
             width="100%"
             y="0"
             x="0"
             xlink:href="#SVGID_11_"
             style="overflow:visible"
             id="use5071" />
        </clipPath>
      </g>
      <path
         style="fill:#618bff"
         inkscape:connector-curvature="0"
         class="st3"
         d="m 1514.9,65.6 c 0,0 -7.3,-9.7 -9.5,-9 -2.2,0.6 0.4,17.6 0.4,17.6 l 9.1,-8.6 z"
         id="path5073" />
      <g
         id="g5075">
        <defs
           id="defs5077">
          <path
             inkscape:connector-curvature="0"
             id="path5079"
             d="m 1376.3,132.6 c 14.4,-30.6 24.1,-38.6 58.9,-16.5 29.1,18.6 50.2,-41.2 76.4,-52.6 11.9,-5.2 40.7,1.8 47.9,5.3 0,0 3.6,10 -4.5,10.5 -2.3,0.1 -6.9,-5.4 -6.9,-5.4 l -11.5,3.7 c 0,0 -2.7,7.5 -9.9,8.7 -7.2,1.2 -11.6,-7.3 -13.6,-4.6 -5.2,7.1 -12.6,22.2 -13.1,47 -0.4,20 -16.1,31.5 -33,35.8 -28.6,7.3 -58.2,-7.1 -58.2,-7.1 0,0 -11,-2.7 -17.2,-6.8 -6.2,-4.1 -15.3,-18 -15.3,-18 z" />
        </defs>
        <clipPath
           id="clipPath5081">
          <use
             height="100%"
             width="100%"
             y="0"
             x="0"
             xlink:href="#SVGID_13_"
             style="overflow:visible"
             id="use5083" />
        </clipPath>
      </g>
      <ellipse
         style="fill:#222b37"
         transform="matrix(0.3375,-0.9413,0.9413,0.3375,963.3307,1513.2665)"
         class="st13"
         cx="1556.7"
         cy="72.300003"
         rx="2"
         ry="0.89999998"
         id="ellipse5085" />
      <circle
         style="fill:#222b37"
         r="3.0999999"
         transform="matrix(0.1227,-0.9924,0.9924,0.1227,1265.4736,1575.4249)"
         class="st13"
         cx="1523.8"
         cy="71.900002"
         id="circle5087" />
      <path
         style="fill:#202020"
         inkscape:connector-curvature="0"
         class="st14"
         d="m 1424.2,160.6 c -6.4,0 -12.9,-1.5 -18.7,-4.4 -0.2,-0.1 0,-0.7 0.2,-0.6 6.2,1.5 12.3,2.8 18.5,4.3 0.3,0.1 0.3,0.7 0,0.7 z"
         id="path5089" />
      <path
         style="fill:#202020"
         inkscape:connector-curvature="0"
         class="st14"
         d="m 1496.1,141.9 c 0.8,-5.7 1.8,-11.2 3,-16.8 0,-0.2 0.7,-0.2 0.7,0.1 0.2,5.8 -0.8,11.6 -3,17 -0.1,0.1 -0.7,0 -0.7,-0.3 z"
         id="path5091" />
    </g>
    <text
       clip-path="url(#clipPath5215)"
       xml:space="preserve"
       style="font-style:normal;font-weight:normal;font-size:40px;line-height:125%;font-family:sans-serif;letter-spacing:0px;word-spacing:0px;fill:#292929;fill-opacity:1;stroke:none;stroke-width:1px;stroke-linecap:butt;stroke-linejoin:miter;stroke-opacity:1"
       x="-261.49097"
       y="1279.9005"
       id="text5206"
       sodipodi:linespacing="125%"
       transform="matrix(1,0,0.61490732,1.1468042,-77.684899,-168.95185)"
       inkscape:transform-center-x="-386.64965"
       inkscape:transform-center-y="8.8578135"><tspan
         sodipodi:role="line"
         id="tspan5208"
         x="-261.49097"
         y="1279.9005"
         style="font-size:1250px;fill:#292929;fill-opacity:1">D</tspan></text>
    <g
       id="g5178"
       clip-path="url(#clipPath5194)"
       style="fill:#383838;fill-opacity:1">
      <rect
         y="902.94501"
         x="872.90576"
         height="130.75916"
         width="116.62304"
         id="rect5156"
         style="opacity:1;fill:#383838;fill-opacity:1" />
      <rect
         transform="scale(1,-1)"
         y="-1047.8403"
         x="574.28009"
         height="418.78271"
         width="182.00262"
         id="rect5158"
         style="opacity:1;fill:#383838;fill-opacity:1" />
    </g>
  </g>
</svg>
