<?xml version="1.0" encoding="utf-8"?>
<!-- Generator: Adobe Illustrator 21.1.0, SVG Export Plug-In . SVG Version: 6.00 Build 0)  -->
<svg version="1.1" id="Layer_1" xmlns="http://www.w3.org/2000/svg" xmlns:xlink="http://www.w3.org/1999/xlink" x="0px" y="0px"
	 viewBox="0 0 1609 323" width="1609px" height="323px" style="enable-background:new 0 0 1609 323;" xml:space="preserve">
<style type="text/css">
	.st0{filter:url(#Adobe_OpacityMaskFilter);}
	.st1{fill:url(#SVGID_2_);}
	.st2{mask:url(#SVGID_1_);}
	.st3{fill:#618BFF;}
	.st4{fill:#2CCAFA;}
	.st5{fill:#3AF7D1;}
	.st6{fill:#FFE01B;}
	.st7{fill:#FFA200;}
	.st8{fill:#FF7381;}
	.st9{clip-path:url(#SVGID_4_);fill:#222B37;}
	.st10{clip-path:url(#SVGID_6_);fill:#222B37;}
	.st11{clip-path:url(#SVGID_8_);fill:#222B37;}
	.st12{clip-path:url(#SVGID_10_);fill:#222B37;}
	.st13{fill:#222B37;}
	.st14{fill:#202020;}
</style>
<defs>
	<filter id="Adobe_OpacityMaskFilter" filterUnits="userSpaceOnUse" x="652.2" y="-15.4" width="746.1" height="326.5">
		
			<feColorMatrix  type="matrix" values="-1 0 0 0 1  0 -1 0 0 1  0 0 -1 0 1  0 0 0 1 0" color-interpolation-filters="sRGB" result="source"/>
	</filter>
</defs>
<mask maskUnits="userSpaceOnUse" x="652.2" y="-15.4" width="746.1" height="326.5" id="SVGID_1_">
	<g class="st0">
		
			<linearGradient id="SVGID_2_" gradientUnits="userSpaceOnUse" x1="1174.6949" y1="2.4056" x2="958.9948" y2="101.8419" gradientTransform="matrix(0.9397 0.342 -0.342 0.9397 262.2481 -260.6453)">
			<stop  offset="0" style="stop-color:#231F20"/>
			<stop  offset="0.1146" style="stop-color:#3F3B3C"/>
			<stop  offset="0.5534" style="stop-color:#A5A4A4"/>
			<stop  offset="0.8576" style="stop-color:#E6E5E6"/>
			<stop  offset="1" style="stop-color:#FFFFFF"/>
		</linearGradient>
		<polygon class="st1" points="468,271.6 1246.1,554.8 1416.9,85.4 638.9,-197.8 		"/>
	</g>
</mask>
<g class="st2">
	<path class="st3" d="M1397.6,125.7c-5.9-6-13.6-9.6-22.1-9c-9.2,0.6-17.6,5-25,10.3c-8.6,6.3-15.6,14-22.6,22
		c-6.5,7.3-13.8,14.2-21.5,20.2c-16.2,12.7-35.4,19.4-55.3,19.2c-2.8,0-5.6-0.2-8.5-0.5c0,0-2.2-0.2-0.9-0.1
		c1.3,0.1-0.8-0.1-0.9-0.1c-1.7-0.3-3.4-0.6-5.1-0.9c-5.6-1.2-11-2.9-16.4-4.7c-1.5-0.5-2.9-1.1-4.4-1.6c-0.6-0.2-1.2-0.5-1.9-0.8
		c0.3,0.1,1.8,0.8,0.3,0.1c-2.8-1.4-5.5-2.6-8.3-4c-5.1-2.6-10.2-5.3-15.2-7.9c-20.9-11.1-42.8-21.2-66.4-24.7
		c-23.1-3.4-46.1-2.7-68.8,2.9c-21.2,5.2-41.5,14.4-60.2,25.5c-18.6,11.1-35.5,24.6-53,37.2c-18,13-36.4,25.3-56,35.7
		c-4.9,2.6-9.8,5.1-14.8,7.4c-2.4,1.1-4.9,2.1-7.3,3.2c-0.1,0.1,4-1.6,1.9-0.8c-0.6,0.2-1.1,0.5-1.7,0.7c-1.3,0.5-2.6,1.1-4,1.6
		c-10.3,4-21,7.3-31.8,9.7c-5,1.1-10.1,2-15.2,2.7c1.8-0.2,3.6-0.5,5.4-0.7c-15,2-30.2,2-45.2,0.1c1.8,0.2,3.7,0.5,5.5,0.7
		c-7.7-1-15.3-2.6-22.8-4.7c-3.8-1.1-7.6-2.3-11.3-3.7c-1.6-0.6-3.2-1.3-4.8-1.9c7,2.7,0.3,0.1-1.5-0.8c-6.8-3.2-13.2-7-19.3-11.4
		c-0.8-0.6-1.6-1.2-2.5-1.8c5.4,4,2.4,1.9,1.2,0.8c-1.2-1.1-2.4-2.4-3.6-3.6c-2.9-3-5.6-6.1-8.1-9.3c1.2,1.6,2.4,3.1,3.6,4.7
		c-3.1-4.1-6.2-8.1-9.3-12.2c1.2,1.6,2.5,3.2,3.7,4.8c-0.9-1.1-1.7-2.2-2.5-3.4c-3.7-5.1-7.8-9.1-14.1-10.8
		c-5.6-1.6-13.2-0.9-18.2,2.4c-9.9,6.4-16.1,21.5-8.5,32.2c4.5,6.3,9.1,12,14.8,17.1c5.5,4.9,11.6,9.1,17.5,13.4
		c10.7,7.8,22.1,13.7,34.4,18.6c23,9.2,48.8,12.7,73.4,11.4c58.1-3.1,109.2-32.1,154.8-66.2c6.5-4.9,13-9.9,19.5-14.9
		c2.8-2.1,5.5-4.3,8.2-6.4c1.3-1,2.6-2,3.9-3c0.6-0.5,1.3-1,1.9-1.5c1.8-1.4-3,2.3-0.3,0.3c10.7-8.1,21.8-15.8,33.5-22.5
		c5.7-3.2,11.5-6.3,17.5-9c1.4-0.6,2.8-1.3,4.2-1.9c3-1.3-0.9,0.3-1,0.4c0.2-0.4,2.2-0.9,2.7-1.1c3-1.2,6-2.3,9.1-3.3
		c6.1-2,12.4-3.8,18.7-5.1c3.2-0.7,6.4-1.2,9.6-1.7c2.3-0.4-3.4,0.4-1,0.1c0.8-0.1,1.5-0.2,2.3-0.3c1.7-0.2,3.5-0.3,5.2-0.5
		c6.7-0.5,13.4-0.5,20.1-0.1c1.6,0.1,3.2,0.2,4.8,0.4c0.8,0.1,1.6,0.2,2.4,0.2c0.2,0,4.3,0.4,1.5,0.2c-2.4-0.2,0.3,0.1,0.9,0.1
		c0.8,0.1,1.7,0.3,2.5,0.4c1.9,0.3,3.8,0.7,5.7,1.1c7,1.5,13.9,3.6,20.7,6.2c1.6,0.6,3.1,1.2,4.7,1.8c0.8,0.3,1.6,0.6,2.3,0.9
		c3.8,1.5-2-0.9,0.3,0.1c3.3,1.4,6.5,2.9,9.8,4.4c1.6,0.7,3.2,1.5,4.9,2.1c-3-1.1-0.9-0.3-0.2-0.1c1.7,0.8,3.5,1.6,5.2,2.3
		c3.3,1.5,6.6,3,9.9,4.4c7.6,3.3,15.2,6.7,23,9.1c14.8,4.6,30.9,6.1,46.3,4.2c15.1-1.9,29.9-6.7,42.7-15.2
		c10.5-7,19.5-15.8,27.4-25.7c8.2-10.3,15.3-21.5,24.6-31c7.8-7.9,18.3-16.7,30-16.9c5.6-0.1,10.6,2.3,14.8,5.9
		C1396.4,131.7,1400,128.2,1397.6,125.7L1397.6,125.7z"/>
	<path class="st4" d="M1396.1,121.4c-12.9-14-32.3-10.6-47.3-2.1c-7.9,4.5-14.5,10.5-21,16.8c-6.8,6.7-13.8,13.2-21.5,19
		c-16.6,12.6-35.5,18.9-56.1,17.9c-2.3-0.1-6.3-0.5-7.5-0.6c0.5,0.1-2.2-0.4-2.8-0.5c-1.5-0.3-3-0.6-4.4-0.9
		c-2.8-0.6-5.5-1.4-8.2-2.3c-1.5-0.5-2.9-1-4.4-1.5c-0.6-0.2-1.2-0.5-1.9-0.7c-0.2-0.1-2.6-1-1.4-0.5c2.1,0.8-3.4-1.4-2.9-1.2
		c0.3,0.1,1.8,0.8,0.3,0.1c-1.4-0.6-2.8-1.3-4.3-2c-2.5-1.2-5-2.5-7.5-3.9c-5-2.7-9.9-5.4-14.8-8.2c-20-11.3-40.9-21.8-63.6-26.1
		c-23.1-4.4-46.3-4.2-69.3,0.5c-21.2,4.4-41.7,12.9-60.6,23.4c-18.9,10.4-36.1,23.4-53.9,35.6c-17.9,12.3-36.3,24.1-55.7,34.1
		c-4.7,2.4-9.5,4.8-14.4,6.9c-1.1,0.5-2.2,1-3.4,1.5c-0.7,0.3-1.6,0.6-2.3,1c-0.1,0.1,3.9-1.6,1.9-0.8c-2.7,1-5.3,2.1-8,3.1
		c-10.2,3.8-20.6,7-31.2,9.3c-5.1,1.1-10.3,2-15.5,2.7c1.8-0.2,3.6-0.5,5.4-0.7c-15.2,2-30.7,2-45.9,0c1.8,0.2,3.7,0.5,5.5,0.7
		c-7.8-1.1-15.5-2.7-23.1-4.9c-3.6-1-7.2-2.2-10.7-3.5c-1.8-0.7-8.3-3.7-1.6-0.5c-1.7-0.8-3.4-1.5-5.1-2.3
		c-6.9-3.3-13.5-7.2-19.6-11.6c-0.8-0.6-1.7-1.1-2.4-1.8c0.7,0.7,4.3,3.4,1.6,1.2c-1.5-1.2-2.8-2.4-4.1-3.8c-2.8-2.9-5.5-6-8-9.3
		c1.2,1.5,2.4,3.1,3.6,4.6c-3.1-4-5.9-8.2-9.1-12.2c1.2,1.6,2.5,3.2,3.7,4.8c-1.5-1.9-2.9-3.9-4.3-5.9c-3.5-5.1-8-9.1-14.1-10.8
		c-5.6-1.6-13.2-0.9-18.2,2.4c-10.1,6.5-15.9,21.3-8.5,32.2c4.2,6.3,8.9,12.1,14.4,17.3c2,1.9,4.1,3.6,6.2,5.3
		c2.3,1.8,4.6,3.6,6.9,5.3c0.5,0.4,1.1,0.8,1.6,1.2c3.1,2.3-4-3.2-1.1-0.9c10.4,8,21,15,33.2,20.3c24.1,10.3,50,15.6,76.3,15
		c57.6-1.1,109.6-28.7,155.6-61.1c22.6-16,44-33.7,68.3-47c5.7-3.1,11.4-6,17.4-8.6c1.2-0.5,3.1-2-0.4,0.1c0.6-0.4,1.5-0.6,2.2-0.9
		c1.4-0.6,2.9-1.1,4.3-1.7c3.1-1.2,6.2-2.2,9.3-3.2c6.2-2,12.6-3.6,19-4.8c1.5-0.3,3-0.6,4.6-0.8c0.8-0.1,1.5-0.2,2.3-0.4
		c2.3-0.4-3.4,0.4-1,0.1c3.5-0.4,7-0.7,10.5-0.9c6.8-0.4,13.6-0.3,20.4,0.3c1.6,0.1,3.3,0.3,4.9,0.5c0.6,0.1,3.3,0.4,0.9,0.1
		c-2.4-0.3,0.4,0.1,0.9,0.1c3.6,0.5,7.1,1.2,10.7,2c6.9,1.6,13.7,3.8,20.3,6.4c0.8,0.3,1.5,0.6,2.3,0.9c2.7,1.1,0.1,0-0.3-0.2
		c1.5,0.6,3,1.3,4.5,2c3.4,1.5,6.7,3.2,10.1,4.7c13.8,6.4,27.3,13.6,41.6,18.8c14.4,5.3,30.7,7.5,46,6.2
		c15.3-1.2,30.4-5.4,43.5-13.6c10.6-6.6,19.6-15.4,27.8-24.9c7.9-9.1,15.2-19,24.5-26.8c8.1-6.7,18.7-12.8,29.6-12.6
		c5.9,0.1,11.1,2.5,15.5,6.4C1394.9,127.4,1398.4,123.9,1396.1,121.4L1396.1,121.4z"/>
	<path class="st5" d="M1396.4,117.4c-11.3-14-29.6-12.7-44.6-6.1c-16.5,7.3-28.8,21.3-43.4,31.5c-7.5,5.3-15.5,10-24.1,12.9
		c-10.1,3.4-19.7,4.7-30.3,4.3c-2.5-0.1-5.1-0.3-7.6-0.6c0,0-2-0.3-0.9-0.1c1.1,0.2-0.9-0.2-0.9-0.2c-1.6-0.3-3.3-0.6-4.9-1
		c-5.1-1.1-10.2-2.7-15.1-4.6c-0.6-0.2-1.2-0.5-1.8-0.7c0.5,0.2,2.1,1-0.3-0.1c-1.2-0.5-2.3-1.1-3.5-1.6c-2.5-1.2-5-2.5-7.4-3.8
		c-4.9-2.7-9.5-5.6-14.2-8.6c-18.9-12.1-37.4-24.3-58.7-32c-20.9-7.6-44.2-10.5-66.3-8.9c-21.9,1.6-43.2,7-63.4,15.4
		c-20.9,8.8-40.1,20.1-59.5,31.8c-18.5,11.2-37.2,22.1-56.8,31.5c-2.3,1.1-4.5,2.1-6.8,3.2c-1.3,0.6-2.7,1.2-4,1.8
		c-0.6,0.3-1.2,0.5-1.7,0.7c-2.4,1.1,3.6-1.5,1.2-0.5c-5,2-10,4-15.2,5.8c-10,3.5-20.3,6.5-30.7,8.7c-5.4,1.1-10.8,2.1-16.2,2.8
		c1.8-0.2,3.6-0.5,5.4-0.7c-15.6,2-31.2,2.1-46.8,0.1c1.8,0.2,3.7,0.5,5.5,0.7c-8.2-1.1-16.2-2.8-24.2-5.1
		c-3.8-1.1-7.5-2.3-11.2-3.7c-1-0.4-1.9-0.7-2.9-1.1c-0.8-0.3-4.5-1.9-0.8-0.3c3.7,1.6,0,0-0.8-0.4c-0.9-0.4-1.9-0.9-2.8-1.3
		c-7.2-3.4-14.1-7.5-20.6-12.2c-0.8-0.6-1.6-1.4-2.4-1.8c0.9,0.7,1.8,1.4,2.7,2.1c-0.5-0.4-1.1-0.8-1.6-1.3c-1.6-1.3-3.1-2.6-4.6-4
		c-3.1-2.8-5.7-5.8-8.2-9c1.2,1.5,2.3,3,3.5,4.5c-4.8-6.2-9-13-12.9-19.7c-6.2-10.6-21.5-15.4-32.2-8.5
		c-10.7,6.9-15.1,20.9-8.5,32.2c7,11.8,16.3,20.6,26.3,29.6c9.5,8.5,20.2,16,31.6,21.9c23.4,11.9,49,18.2,75.2,19.5
		c57.9,2.8,112.3-22.5,160.4-52.1c24-14.7,46.8-31.3,72.6-43c1.4-0.7,3.1-1.2,4.4-2c-0.4,0.2-3.7,1.5-0.9,0.4
		c0.7-0.3,1.5-0.6,2.2-0.9c3.2-1.3,6.4-2.4,9.6-3.6c6.4-2.2,12.9-4.1,19.5-5.5c3.1-0.7,6.2-1.3,9.3-1.8c0.8-0.1,1.6-0.3,2.3-0.4
		c0.7-0.1,3.3-0.3,0.7-0.1c-2.6,0.2,0.1,0,0.7-0.1c1-0.1,2-0.2,3-0.3c6.8-0.6,13.7-0.8,20.5-0.6c3.3,0.1,6.6,0.4,9.8,0.7
		c0.8,0.1,1.7,0.2,2.5,0.3c3.5,0.4-0.6-0.1-0.6-0.1c0.1-0.2,5.7,0.9,6.3,1.1c7.2,1.3,14.2,3.2,21.1,5.6c1.6,0.6,3.1,1.1,4.7,1.8
		c0.7,0.3,1.6,0.5,2.3,0.9c-0.4-0.2-3.1-1.4-0.4-0.1c3.2,1.5,6.4,2.9,9.5,4.5c6.3,3.2,12.4,6.6,18.5,10c13,7.2,25.9,15.1,40,20.3
		c13.9,5.2,29.3,7.8,44.2,7c14.9-0.8,29.4-4.5,42.4-11.9c11-6.2,20.4-14.8,29.1-23.8c8.2-8.5,16.1-17.8,26-24.4
		c8.5-5.7,19.3-10.8,29.8-9.4c5.5,0.7,10.1,3.5,13.9,7.4C1395.1,123.6,1398.5,120,1396.4,117.4L1396.4,117.4z"/>
	<path class="st6" d="M1397,115c-10.6-14.9-29.1-15.3-44.9-9.2c-8.1,3.1-15.2,7.5-22.1,12.7c-8.2,6.2-16.6,12.2-25.5,17.4
		c-8.5,5-17.5,8.9-27.2,10.9c-4.9,1-9.5,1.4-15,1.6c-2.7,0.1-5.4,0-8.1-0.2c-1.4-0.1-2.9-0.2-4.3-0.4c-1.4-0.1-0.2,0,0,0
		c-0.8-0.1-1.6-0.2-2.4-0.4c-5.6-1-11.1-2.4-16.4-4.3c-1.2-0.4-2.3-0.9-3.4-1.3c-2.4-0.9-0.8-0.3-0.3-0.1c-0.6-0.2-1.1-0.5-1.7-0.8
		c-2.6-1.2-5.2-2.5-7.7-3.9c-10-5.6-19.2-12.4-28.4-19.2c-18.9-14.1-38.1-27.1-60.6-34.8c-23-7.8-48.1-10.6-72.3-7.9
		c-25.2,2.8-48.8,10.2-72,20.4c-21.6,9.5-42.1,21.6-63.3,31.8c-5.2,2.5-10.4,5-15.7,7.3c-2.5,1.1-5.1,2.1-7.6,3.3
		c0.4-0.2,4.1-1.7,1.1-0.4c-0.6,0.2-1.2,0.5-1.8,0.7c-1.4,0.6-2.8,1.1-4.1,1.7c-10.8,4.3-21.8,8.1-33.1,11.2
		c-5.7,1.6-11.5,3-17.3,4.1c-2.7,0.5-5.4,1.1-8.1,1.5c-1.3,0.2-2.5,0.4-3.8,0.6c-1.2,0.2-3.9,0.4,1.5-0.2c-0.8,0.1-1.7,0.2-2.5,0.3
		c-10.7,1.3-21.5,1.7-32.2,1.2c-4.6-0.2-9.2-0.7-13.7-1.3c1.8,0.2,3.6,0.5,5.5,0.7c-10.9-1.5-21.6-3.9-32-7.5
		c-2.6-0.9-5.2-1.8-7.7-2.8c-5.1-2,3.6,1.6,0.3,0.1c-1.2-0.6-2.5-1.1-3.7-1.7c-4.9-2.3-9.7-4.9-14.4-7.8c-2.3-1.4-4.6-2.9-6.8-4.5
		c-1.1-0.8-2.2-1.6-3.3-2.4c-2.9-2.1,4.6,3.7,0.3,0.2c-4.2-3.4-8.2-7.1-11.9-11c-3.7-4,2.3,3.4,0.2,0.5c-0.8-1.1-1.6-2.2-2.3-3.3
		c-1.5-2.2-3-4.5-4.4-6.8c-2.8-4.7-5.4-9.7-7.9-14.6c-5.6-11-22-15.1-32.2-8.5c-11.3,7.3-14.4,20.4-8.5,32.2
		c6.1,12,15.3,21.4,24.6,30.9c8.9,9.1,19.3,17.1,30.3,23.6c22.5,13.3,47.6,20.6,73.5,23.6c58.1,6.8,114.6-16.1,164.9-42.8
		c12.7-6.7,25.1-13.9,37.7-20.8c6.5-3.5,13-6.8,19.7-9.8c1.6-0.7,3.1-1.4,4.7-2.1c0.6-0.3,3.2-1.3,0.8-0.4c-2.4,1,0.2-0.1,0.8-0.3
		c3.3-1.4,6.7-2.6,10.1-3.8c6.7-2.4,13.5-4.5,20.3-6.2c3.2-0.8,6.4-1.5,9.7-2.1c1.6-0.3,3.2-0.6,4.9-0.9c0.8-0.1,1.6-0.3,2.4-0.4
		c4.2-0.7-3.9,0.4,0.4,0c7-0.7,14-1.2,21.1-1.1c3.3,0,6.7,0.2,10,0.5c1.7,0.1,3.4,0.3,5,0.5c0.8,0.1,3.3,0.3-0.6-0.1
		c1.1,0.1,2.1,0.3,3.2,0.5c7.2,1.2,14.3,2.8,21.2,5c3.5,1.1,6.9,2.4,10.3,3.6c2.2,0.8-2.5-1.1-0.4-0.2c0.8,0.3,1.5,0.7,2.3,1
		c1.7,0.8,3.4,1.6,5,2.4c12.4,6.2,23.9,14,35.5,21.5c5.7,3.7,11.4,7.4,17.2,10.9c2.9,1.7,5.8,3.4,8.8,4.9c0.7,0.4,1.5,0.8,2.2,1.1
		c1.1,0.5,5.6,2.4,3.4,1.5c-2.2-0.9,2.3,1,3.3,1.4c0.9,0.4,1.9,0.8,2.8,1.1c13.5,5.2,28.2,7.8,42.6,7.3c14.5-0.5,28.6-4,41.4-10.9
		c11.1-5.9,20.7-14.2,29.9-22.7c8.4-7.8,16.8-15.8,27-21.3c8.5-4.6,19.2-8.3,29-6c5.1,1.3,9.3,4.2,12.6,8.2
		C1394.7,120.4,1398.7,117.5,1397,115L1397,115z"/>
	<path class="st7" d="M1397.2,111.3c-9-14.6-26-16.8-41.4-12.7c-17.7,4.6-31.7,16.8-47.5,25.3c-8.4,4.6-17.2,8.4-26.6,10.5
		c-5.1,1.2-9.2,1.5-14.6,1.6c-2.7,0.1-5.3,0.1-8-0.1c-1.2-0.1-2.4-0.2-3.6-0.3c-0.6-0.1-1.2-0.1-1.8-0.2c-0.5-0.1-1.8-0.3-0.6-0.1
		c-5.2-0.8-10.4-2-15.5-3.7c-1.1-0.4-2.2-0.8-3.3-1.2c-0.6-0.2-3.9-1.6-1.9-0.7c-2.5-1.1-5-2.3-7.4-3.6c-4.6-2.4-9-5.2-13.2-8.2
		c-1-0.7-2-1.4-3-2.1c-0.7-0.5-1.3-1-2-1.5c0.2,0.1,1.7,1.4,0.5,0.4c-2.2-1.8-4.5-3.6-6.7-5.5c-17.3-14.4-34.1-29.8-54.1-40.5
		c-22.6-12-48.1-18.5-73.6-19.4c-24.2-0.9-48.6,3.5-71.6,10.8c-23.6,7.5-45.9,18.5-68.5,28.3c-1.9,0.8,1.4-0.6,1.5-0.6
		c-0.8,0.3-1.6,0.7-2.4,1c-1.2,0.5-2.4,1-3.6,1.5c-2.8,1.2-5.7,2.3-8.5,3.4c-5.3,2.1-10.6,4.1-15.9,6c-10.8,3.9-21.8,7.3-33,10.2
		c-5.7,1.4-11.4,2.7-17.1,3.8c-2.8,0.5-5.5,1-8.3,1.4c-0.8,0.1-5.1,0.7-1.9,0.3c3.3-0.4-1.6,0.2-2.5,0.3
		c-11.7,1.3-23.4,1.8-35.1,1.1c-4.4-0.2-8.8-0.7-13.1-1.2c1.8,0.2,3.6,0.5,5.4,0.7c-8.6-1.2-17.2-3-25.5-5.4
		c-4.1-1.2-8.2-2.6-12.2-4.1c-1-0.4-1.9-0.7-2.9-1.1c-0.5-0.2-1-0.4-1.4-0.6c-2-0.8,2.9,1.3,2.6,1.1c-1.8-1.2-4.2-1.8-6.1-2.8
		c-7.8-3.8-15.4-8.2-22.4-13.3c-0.8-0.6-1.6-1.2-2.5-1.8c-2.8-2.1,3.8,3.1,1.1,0.8c-1.7-1.4-3.4-2.8-5-4.3c-3.2-2.8-6.2-5.8-9-8.9
		c-0.8-0.9-1.6-1.8-2.4-2.7c-0.6-0.7-3.8-4.6-1.2-1.3c2.4,3.1,0-0.3-0.6-1.2c-0.6-1-1.3-2-1.9-3c-2.5-4.3-4.8-8.7-6.7-13.3
		c0.8,1.9,1.6,3.7,2.4,5.6c-1.9-4.8-4.2-9.4-6.3-14.1c-2.1-5-9.1-9.5-14.1-10.8c-5.6-1.6-13.2-0.9-18.2,2.4
		c-5,3.2-9.5,8.1-10.8,14.1c-0.3,2.1-0.6,4.2-0.8,6.3c0,4.3,1.1,8.2,3.2,11.9c5.2,12.2,13.9,21.8,22.4,31.8
		c8.3,9.7,18.3,18,28.8,25.3c19.6,13.6,43,22.7,66.4,27.1c29.2,5.4,58.8,4.2,87.8-1.9c29.3-6.1,57.3-17.4,84.5-29.6
		c13.4-6,26.6-12.6,40-18.7c1.7-0.8,3.3-1.5,5-2.2c0.8-0.4,1.7-0.7,2.5-1.1c2.4-1-2.9,1.2-0.5,0.2c3.6-1.4,7.1-2.9,10.7-4.2
		c7.1-2.6,14.3-5,21.6-7c6.9-1.9,14-3.5,21.1-4.6c0.9-0.1,1.7-0.3,2.6-0.4c0.6-0.1,3.4-0.4,0.9-0.1c-2.5,0.3,0.3,0,0.9-0.1
		c0.9-0.1,1.7-0.2,2.6-0.3c3.7-0.4,7.3-0.6,11-0.7c7.4-0.2,14.8,0,22.1,0.8c0.7,0.1,2,0,2.6,0.3c-0.4-0.2-3.8-0.6-0.5,0
		c1.8,0.3,3.5,0.6,5.3,0.9c3.8,0.7,7.5,1.6,11.2,2.6c3.6,1,7.1,2,10.6,3.2c1.8,0.6,3.6,1.3,5.3,1.9c0.9,0.3,1.7,0.7,2.6,1
		c1.9,0.7-2.6-1.2,0.2,0.1c6.2,2.9,12.2,6.1,17.9,9.7c11.5,7.2,22.3,15.7,33.2,23.8c11.6,8.6,23,16.3,36.3,21.8
		c12.8,5.3,26.6,8.1,40.5,8.2c14.4,0.1,28.3-3.1,41.2-9.3c11.3-5.4,21.2-13.2,30.8-21.1c8.4-6.9,17.2-13.9,27.2-18.4
		c8.6-3.9,19.1-6.6,28.4-3.8c4.9,1.5,9,4.6,12,8.7C1394.6,116.6,1399,114.3,1397.2,111.3L1397.2,111.3z"/>
	<path class="st8" d="M1397.4,107.8c-7.7-14.5-23.6-18-38.7-15.5c-17.7,2.8-32.2,13.6-48,21.2c-8.6,4.1-17.6,7.7-27,9.6
		c-4.6,0.9-9.1,1.3-14.1,1.3c-2.6,0-5.3-0.1-7.9-0.3c-1.2-0.1-2.4-0.2-3.6-0.3c0,0-1.9-0.2-0.9-0.1c0.8,0.1-1.2-0.2-1.4-0.2
		c-4.9-0.8-9.8-2-14.5-3.6c-1.3-0.4-2.5-0.9-3.8-1.4c-0.6-0.2-3.1-1.3-1.3-0.5c-2.2-1-4.5-2.1-6.6-3.2c-4.6-2.4-9-5.2-13.2-8.3
		c-0.8-0.6-2.8-2.1-0.9-0.7c0.3,0.2-4.3-3.4-2.3-1.8c1.3,1-0.3-0.2-0.4-0.3c-2.1-1.7-4.2-3.5-6.3-5.4c-16.3-14.8-31.1-30.8-49-43.7
		c-19.1-13.7-41.9-23.1-65-27.1c-24.7-4.4-49.4-3.4-74.1,1.2c-23,4.3-44.6,12.5-66.5,20.5c-22,8-44.2,15.5-67,20.8
		c-5.6,1.3-11.3,2.5-17,3.5c-2.6,0.5-5.3,0.9-7.9,1.3c-3.8,0.6,3.8-0.4,0,0c-1.8,0.2-3.5,0.4-5.3,0.6c-11.5,1.2-23.1,1.7-34.7,1.2
		c-5.5-0.3-11.1-0.7-16.6-1.5c1.8,0.2,3.6,0.5,5.4,0.7c-8.8-1.2-17.5-3-26-5.6c-4.3-1.3-8.6-2.7-12.8-4.3c-1-0.4-1.9-0.8-2.9-1.1
		c-3.3-1.3,4.4,1.9,1.1,0.5c-2.2-1-4.4-2-6.6-3c-7.9-3.8-15.5-8.3-22.6-13.5c-0.9-0.7-1.9-1.7-2.9-2.1c-0.3-0.2,4,3.1,2.3,1.7
		c-0.4-0.3-0.8-0.6-1.2-1c-1.7-1.4-3.4-2.8-5.1-4.3c-3.3-2.9-6.5-6.1-9.5-9.3c-1.7-1.9-3.4-3.8-5-5.8c-0.3-0.4-0.6-0.8-1-1.2
		c-1.6-2,3,4,1.5,1.9c-0.7-1-1.4-1.9-2.1-2.9c-2.8-4.3-5-9-7-13.7c0.8,1.8,1.5,3.6,2.3,5.5c-2-4.7-3.7-9.5-5.7-14.3
		c0.8,1.9,1.6,3.8,2.4,5.6c-0.9-2.3-1.8-4.5-2.6-6.9c-2-5.8-5.4-10.9-10.8-14.1c-5.1-3-12.5-4.2-18.2-2.4
		c-11.5,3.7-20.8,16.5-16.5,29c2.5,7.2,5.5,14.1,9.6,20.6c1.5,2.3,3,4.6,4.7,6.8c1.7,2.3,3.5,4.6,5.3,6.9c0.4,0.5,0.8,1.1,1.3,1.6
		c2.2,2.7-2.7-3.6-1.2-1.6c7.8,10.4,16.4,19.9,26.6,28c20.4,16.1,43.7,27.8,68.9,34.1c58.9,14.9,119.1-0.4,174.4-21.4
		c28-10.7,55.3-22.8,84.9-28.2c1.7-0.3,3.4-0.6,5.1-0.9c1.3-0.2,6.2-1.5,1.8-0.3c3.4-0.9,7.4-0.8,10.9-1c7.1-0.5,14.2-0.5,21.2-0.1
		c3.3,0.2,7,0.2,10.3,0.9c-4.2-1,0.8,0.1,2,0.3c2.2,0.4,4.3,0.8,6.4,1.2c7.2,1.5,14.3,3.6,21.2,6.1c1.7,0.6,3.4,1.3,5.1,2
		c2.3,0.9-2.3-1.1,0,0c0.8,0.4,1.7,0.8,2.6,1.2c3.3,1.5,6.5,3.1,9.6,4.9c6,3.4,11.6,7.3,17.2,11.4c0.6,0.4,2.4,1.7-0.3-0.3
		c0.6,0.5,1.3,1,1.9,1.5c1.3,1,2.5,2,3.7,3c2.6,2.2,5.2,4.4,7.9,6.6c5.1,4.3,10.2,8.6,15.3,12.9c10.8,9.1,21.8,17.9,34.7,23.8
		c13,6,26.6,9.7,40.9,10.6c14,0.8,27.9-1.7,40.8-7.1c12-5.1,22.5-12.4,33-19.9c8.6-6.1,17.8-12.3,27.9-15.8c8.7-3,19.1-4.8,27.9-1.3
		c4.6,1.9,8.2,5.2,10.9,9.4C1394.7,113.3,1399,110.8,1397.4,107.8L1397.4,107.8z"/>
</g>
<path class="st3" d="M1390.6,109.4c-19,14.3-12.4,39.5-39.6,52.9c0,0-0.1,19.6-13.1,31.4l1.8,4.9c0,0,19.4-13.9,19.9-30.5
	c0,0,28,7,49-21"/>
<path class="st8" d="M1522.9,54.4l34.7-30.6c0.6-0.6,1.5,0.3,1,0.9l-27.3,37.3c-0.2,0.3-0.7,0.4-1,0.1l-7.3-6.8
	C1522.5,55.2,1522.5,54.7,1522.9,54.4z"/>
<path class="st3" d="M1376.3,132.6c14.4-30.6,24.1-38.6,58.9-16.5c29.1,18.6,50.2-41.2,76.4-52.6c11.9-5.2,40.7,1.8,47.9,5.3
	c0,0,3.6,10-4.5,10.5c-2.3,0.1-6.9-5.4-6.9-5.4l-11.5,3.7c0,0-2.7,7.5-9.9,8.7c-7.2,1.2-11.6-7.3-13.6-4.6
	c-5.2,7.1-12.6,22.2-13.1,47c-0.4,20-16.1,31.5-33,35.8c-28.6,7.3-58.2-7.1-58.2-7.1s-11-2.7-17.2-6.8
	C1385.4,146.5,1376.3,132.6,1376.3,132.6z"/>
<path class="st3" d="M1519.8,62.6c0,0-2.6-12-4.5-12c-2,0-4.1,14.8-4.1,14.8L1519.8,62.6z"/>
<path class="st5" d="M1512.7,66.3c0.9-6.6,6.3-16.5,12.5-16.2c6.5,0.4,11.2,11.3,16,3.2c6.4,7.6-1.9,14.8-9,12.1
	c-12.7-4.8-19.7,1.7-19.7,1.1"/>
<g>
	<defs>
		<path id="SVGID_3_" d="M1408.7,147c-21.1,28.1-49,21-49,21c-0.5,16.6-19.9,30.5-19.9,30.5l-1.8-4.9c13-11.8,13.1-31.4,13.1-31.4
			c27.2-13.3,18.5-33.2,37.5-47.5"/>
	</defs>
	<clipPath id="SVGID_4_">
		<use xlink:href="#SVGID_3_"  style="overflow:visible;"/>
	</clipPath>
	<polygon class="st9" points="1337.1,187.1 1348.4,195.9 1339.9,203.1 1330.1,194.4 	"/>
</g>
<path class="st3" d="M1423.8,159.2c0,0-10.9,16.4-27.7,15.1c0,0,5.4,11.5-0.7,23.7l-4.4-2.4c0,0,6.8-15.7-6.1-22.5
	c0,0,21.2-8.3,20.9-22.8"/>
<g>
	<defs>
		<path id="SVGID_5_" d="M1423.8,159.2c0,0-10.9,16.4-27.7,15.1c0,0,5.4,11.5-0.7,23.7l-4.4-2.4c0,0,6.8-15.7-6.1-22.5
			c0,0,21.2-8.3,20.9-22.8"/>
	</defs>
	<clipPath id="SVGID_6_">
		<use xlink:href="#SVGID_5_"  style="overflow:visible;"/>
	</clipPath>
	<polygon class="st10" points="1389.3,188.5 1403.2,192 1398.4,202 1386,198 	"/>
</g>
<path class="st3" d="M1495.5,125c0,0,33-2.3,35.8,6.9c3.7,12.4-10.1,35.6-10.1,35.6l-4.3-3.5c0,0,10.9-25,4.8-29.1
	c-6.1-4.1-27.7,9.7-29,10C1491.4,145.1,1495.5,125,1495.5,125z"/>
<g>
	<defs>
		<path id="SVGID_7_" d="M1495.5,125c0,0,33-2.3,35.8,6.9c3.7,12.4-10.1,35.6-10.1,35.6l-4.3-3.5c0,0,10.9-25,4.8-29.1
			c-6.1-4.1-27.7,9.7-29,10C1491.4,145.1,1495.5,125,1495.5,125z"/>
	</defs>
	<clipPath id="SVGID_8_">
		<use xlink:href="#SVGID_7_"  style="overflow:visible;"/>
	</clipPath>
	<polygon class="st11" points="1514.2,157.6 1527.3,163.4 1520.8,172.5 1509.2,166.4 	"/>
</g>
<path class="st3" d="M1475.9,145.5c0,0,33.9,2.3,34.1,11.9c0.2,12.9-11.5,40.6-11.5,40.6l-5.1-2.2c0,0,9.8-28.1,5.1-33.7
	c-4.8-5.6-29.3,1.9-30.6,1.8C1466.5,163.8,1475.9,145.5,1475.9,145.5z"/>
<g>
	<defs>
		<path id="SVGID_9_" d="M1475.9,145.5c0,0,33.9,2.3,34.1,11.9c0.2,12.9-11.5,40.6-11.5,40.6l-5.1-2.2c0,0,10-30.4,5.2-36
			c-4.8-5.6-29.4,4.2-30.7,4.1C1466.5,163.8,1475.9,145.5,1475.9,145.5z"/>
	</defs>
	<clipPath id="SVGID_10_">
		<use xlink:href="#SVGID_9_"  style="overflow:visible;"/>
	</clipPath>
	<polygon class="st12" points="1491.1,189.1 1504.9,194.4 1495.5,201.7 1483.3,196.3 	"/>
</g>
<g>
	<defs>
		<path id="SVGID_11_" d="M1509.1,67c0.8-0.1-6.8-19.8-31.8-15.5c-18.1,3.1-31.5,27.5-32.1,63.6c0,0-7.9-13.9-17.4-5.9
			c-8,6.8,4.5,25.2,25.7,21.7C1477.5,127,1488,69.8,1509.1,67z"/>
	</defs>
	<use xlink:href="#SVGID_11_"  style="overflow:visible;fill:#3AF7D1;"/>
	<clipPath id="SVGID_12_">
		<use xlink:href="#SVGID_11_"  style="overflow:visible;"/>
	</clipPath>
</g>
<path class="st3" d="M1514.9,65.6c0,0-7.3-9.7-9.5-9c-2.2,0.6,0.4,17.6,0.4,17.6L1514.9,65.6z"/>
<g>
	<defs>
		<path id="SVGID_13_" d="M1376.3,132.6c14.4-30.6,24.1-38.6,58.9-16.5c29.1,18.6,50.2-41.2,76.4-52.6c11.9-5.2,40.7,1.8,47.9,5.3
			c0,0,3.6,10-4.5,10.5c-2.3,0.1-6.9-5.4-6.9-5.4l-11.5,3.7c0,0-2.7,7.5-9.9,8.7c-7.2,1.2-11.6-7.3-13.6-4.6
			c-5.2,7.1-12.6,22.2-13.1,47c-0.4,20-16.1,31.5-33,35.8c-28.6,7.3-58.2-7.1-58.2-7.1s-11-2.7-17.2-6.8
			C1385.4,146.5,1376.3,132.6,1376.3,132.6z"/>
	</defs>
	<clipPath id="SVGID_14_">
		<use xlink:href="#SVGID_13_"  style="overflow:visible;"/>
	</clipPath>
</g>
<ellipse transform="matrix(0.3375 -0.9413 0.9413 0.3375 963.3307 1513.2665)" class="st13" cx="1556.7" cy="72.3" rx="2" ry="0.9"/>
<ellipse transform="matrix(0.1227 -0.9924 0.9924 0.1227 1265.4736 1575.4249)" class="st13" cx="1523.8" cy="71.9" rx="3.1" ry="3.1"/>
<path class="st14" d="M1424.2,160.6c-6.4,0-12.9-1.5-18.7-4.4c-0.2-0.1,0-0.7,0.2-0.6c6.2,1.5,12.3,2.8,18.5,4.3
	C1424.5,160,1424.5,160.6,1424.2,160.6z"/>
<path class="st14" d="M1496.1,141.9c0.8-5.7,1.8-11.2,3-16.8c0-0.2,0.7-0.2,0.7,0.1c0.2,5.8-0.8,11.6-3,17
	C1496.7,142.3,1496.1,142.2,1496.1,141.9z"/>
</svg>
